<svg width="268" height="178" viewBox="0 0 268 178" fill="none" xmlns="http://www.w3.org/2000/svg">
<g clip-path="url(#clip0_86_2)">
<path d="M36.8497 17.7956C37.9994 17.323 39.4734 16.939 41.2569 16.6732C45.2367 16.0825 50.3514 15.9348 56.6159 16.2154C64.2953 16.496 69.6606 16.9685 72.7118 17.6331C75.8661 18.2829 78.6372 19.4496 81.025 21.1331C85.4912 24.4412 88.5571 30.4075 90.2522 39.0321C90.3112 39.4308 90.3996 39.9773 90.5028 40.6714C90.6944 41.2621 90.8123 41.6904 90.8565 42.0005C91.8883 48.9858 90.9155 56.8277 87.938 65.5408C87.6727 66.5008 87.2895 67.6822 86.7883 69.0852C86.2872 70.4882 85.6976 72.0536 85.049 73.7814C84.4742 75.3912 84.0762 76.5283 83.8698 77.1633C81.6589 83.5136 80.3618 91.1931 79.9638 100.231C79.5658 108.546 78.7109 114.748 77.3843 118.824C75.3355 124.938 71.0167 129.723 64.3985 133.149C58.4583 136.28 51.8991 138.377 44.7208 139.455C42.8341 139.736 40.8589 139.824 38.8101 139.721C34.7714 139.308 31.5434 138.052 29.0965 135.97C26.6497 133.888 25.1757 131.156 24.6746 127.759C24.2471 124.864 24.6304 121.601 25.8096 117.953C26.5908 115.693 28.389 111.647 31.1896 105.828C34.0786 99.8915 36.6139 95.0771 38.8101 91.385C43.1141 84.0157 45.1482 79.5853 44.9271 78.079C44.8682 77.6802 44.6323 77.503 44.2344 77.5621C43.4384 77.6802 41.4633 79.1423 38.3237 81.963C33.5627 86.2457 29.7304 88.8597 26.8119 89.8048C25.6474 90.1888 24.763 90.4103 24.1734 90.4989C19.0882 91.2521 14.0914 89.8048 9.18301 86.1571C4.14198 82.4208 1.17927 77.503 0.280135 71.4186C-0.353679 67.121 0.280135 63.1041 2.1521 59.353C3.87666 55.9268 7.06047 51.6293 11.6888 46.4604C15.5359 42.222 18.4249 38.6777 20.3411 35.8422C25.2052 28.7978 28.5512 24.3231 30.4084 22.4032C32.2509 20.3947 34.4029 18.8441 36.8939 17.766L36.8497 17.7956Z" fill="black"/>
<path d="M212.622 16.7175C213.757 16.2006 215.217 15.7871 217 15.4474C220.965 14.7238 226.065 14.3989 232.33 14.4727C240.009 14.5023 245.389 14.7976 248.455 15.3588C251.624 15.9052 254.439 16.9833 256.872 18.5783C261.441 21.7386 264.713 27.6016 266.688 36.1523C266.762 36.551 266.865 37.0975 266.983 37.7916C267.189 38.3675 267.322 38.8106 267.381 39.1059C268.649 46.0469 267.941 53.9183 265.258 62.7201C265.023 63.6801 264.684 64.8763 264.227 66.294C263.77 67.7117 263.239 69.2919 262.635 71.0493C262.119 72.6886 261.765 73.8257 261.574 74.4755C259.569 80.8997 258.537 88.6234 258.449 97.6615C258.331 105.991 257.682 112.208 256.488 116.328C254.646 122.516 250.489 127.434 243.989 131.082C238.152 134.405 231.666 136.723 224.532 138.037C222.646 138.377 220.685 138.54 218.636 138.51C214.598 138.229 211.311 137.092 208.805 135.084C206.284 133.09 204.722 130.402 204.103 127.02C203.572 124.141 203.852 120.862 204.914 117.185C205.621 114.896 207.272 110.805 209.881 104.883C212.564 98.8577 214.937 93.9547 217.015 90.1888C221.068 82.6718 222.955 78.1823 222.675 76.6908C222.601 76.292 222.366 76.1296 221.968 76.2034C221.172 76.3511 219.255 77.887 216.204 80.7963C211.591 85.2267 207.847 87.9736 204.958 89.0074C203.808 89.4209 202.938 89.6867 202.334 89.7901C197.278 90.7205 192.237 89.4356 187.196 85.9504C182.037 82.3912 178.912 77.5768 177.807 71.5219C177.026 67.2539 177.512 63.2222 179.281 59.4121C180.902 55.9416 183.924 51.5259 188.375 46.2094C192.075 41.838 194.846 38.2051 196.659 35.2957C201.273 28.0889 204.486 23.496 206.27 21.5319C208.038 19.4643 210.146 17.8398 212.593 16.6732L212.622 16.7175Z" fill="black"/>
<path d="M136.005 50.5365C135.4 49.3255 134.899 48.72 134.501 48.72C134.103 48.72 133.499 49.4732 132.688 50.9943C131.789 53.0175 130.919 56.488 130.123 61.4353C129.416 66.3826 129.062 70.8131 129.062 74.7562C129.062 77.9904 129.313 79.8955 129.814 80.5009C130.919 82.0073 132.187 81.9187 133.587 80.2056C135.504 77.9904 136.756 73.9587 137.361 68.0957C137.464 67.0915 137.508 65.4227 137.508 63.1041C137.508 56.9458 137.007 52.7664 136.005 50.5512V50.5365ZM141.738 0.295362C143.345 0.0886086 146.013 0 149.742 0C153.663 0.103377 156.582 0.502116 158.498 1.21098C165.853 3.92832 170.481 9.5402 172.397 18.0023C172.795 19.5087 173.002 23.5551 173.002 30.1122C173.002 51.4964 172.103 68.5388 170.29 81.2541C168.27 95.4758 164.453 105.961 158.807 112.725C155.078 117.17 150.096 120.744 143.861 123.461C137.626 126.179 131.273 127.552 124.832 127.552C116.976 127.552 110.239 124.982 104.594 119.828C96.2366 112.164 92.0652 101.619 92.0652 88.2099V86.0981C92.2715 80.3533 93.4213 73.4861 95.5438 65.5261C97.3568 58.2602 98.6686 52.8698 99.4646 49.3402C102.088 37.9393 105.095 28.6058 108.53 21.3547C110.343 17.8251 112.406 14.901 114.72 12.5824C117.241 10.0571 120.204 7.98955 123.623 6.37982C129.961 3.35236 136.005 1.32913 141.738 0.324898V0.295362Z" fill="black"/>
<path d="M252.14 157.782H256.547L249.767 169.878V177.616H245.89V169.878L239.139 157.782H243.547L247.851 166.053L252.14 157.782Z" fill="black"/>
<path d="M225.018 177.601H220.803L216.823 170.719H213.86V177.601H209.954V157.782H217.87C219.712 157.782 221.26 158.432 222.527 159.702C223.795 160.972 224.444 162.538 224.444 164.354C224.444 166.821 222.911 169.08 220.626 170.129L225.004 177.601H225.018ZM217.87 161.43H213.86V167.293H217.87C219.344 167.293 220.552 165.964 220.552 164.354C220.552 162.745 219.344 161.43 217.87 161.43Z" fill="black"/>
<path d="M184.735 169.42V173.865H193.077V177.601H180.843V157.782H192.945V161.519H184.749V165.742H192.237V169.42H184.749H184.735Z" fill="black"/>
<path d="M149.963 157.782H164.526V161.519H159.191V177.601H155.284V161.519H149.963V157.782Z" fill="black"/>
<path d="M128.296 178C124.36 178 121.619 176.124 120.528 173.097L123.859 171.148C124.626 173.156 126.144 174.175 128.414 174.175C130.684 174.175 131.583 173.304 131.583 172.078C131.583 171.369 131.273 170.837 130.654 170.468C130.035 170.07 128.93 169.641 127.323 169.198C125.539 168.667 124.463 168.238 123.225 167.352C122.017 166.451 121.353 165.093 121.353 163.276C121.353 161.46 121.972 160.042 123.255 158.993C124.522 157.915 126.085 157.384 127.868 157.384C131.067 157.384 133.573 159.023 134.929 161.829L131.656 163.734C130.86 162.036 129.593 161.179 127.868 161.179C126.262 161.179 125.274 162.006 125.274 163.158C125.274 163.778 125.525 164.295 126.041 164.694C126.571 165.063 127.573 165.491 129.033 165.934L130.389 166.392C130.698 166.481 131.126 166.643 131.656 166.88C132.187 167.072 132.615 167.278 132.895 167.47C133.484 167.84 134.398 168.548 134.767 169.228C135.194 169.907 135.504 170.897 135.504 172.034C135.504 173.88 134.825 175.312 133.499 176.39C132.172 177.468 130.448 178 128.325 178H128.296Z" fill="black"/>
<path d="M105.921 177.601H101.676L100.482 174.027H92.5958L91.4019 177.601H87.1863L94.114 157.782H98.9487L105.906 177.601H105.921ZM96.5608 162.287L93.8487 170.38H99.273L96.5608 162.287Z" fill="black"/>
<path d="M69.8078 175.032C67.8032 177.011 65.3712 178 62.5116 178C59.6521 178 57.22 177.011 55.2154 175.032C53.2403 173.023 52.2527 170.586 52.2527 167.692C52.2527 164.797 53.2403 162.361 55.2154 160.382C57.22 158.373 59.6521 157.384 62.5116 157.384C65.3712 157.384 67.8032 158.373 69.8078 160.382C71.8125 162.361 72.8 164.797 72.8 167.692C72.8 170.586 71.8125 173.023 69.8078 175.032ZM57.957 172.359C59.1657 173.57 60.6986 174.175 62.5116 174.175C64.3246 174.175 65.8428 173.584 67.0662 172.359C68.2749 171.148 68.9087 169.582 68.9087 167.692C68.9087 165.802 68.2896 164.236 67.0662 163.025C65.8576 161.814 64.3246 161.179 62.5116 161.179C60.6986 161.179 59.1804 161.799 57.957 163.025C56.7483 164.236 56.1145 165.802 56.1145 167.692C56.1145 169.582 56.7336 171.148 57.957 172.359Z" fill="black"/>
<path d="M36.9528 177.601H32.7372L28.7574 170.719H25.7947V177.601H21.8887V157.782H29.804C31.6465 157.782 33.1941 158.432 34.4618 159.702C35.7294 160.972 36.3779 162.538 36.3779 164.354C36.3779 166.821 34.845 169.08 32.5603 170.129L36.9381 177.601H36.9528ZM29.7892 161.43H25.78V167.293H29.7892C31.2632 167.293 32.4719 165.964 32.4719 164.354C32.4719 162.745 31.2632 161.43 29.7892 161.43Z" fill="black"/>
</g>
<defs>
<clipPath id="clip0_86_2">
<rect width="268" height="178" fill="white"/>
</clipPath>
</defs>
</svg>
