<svg viewBox="0 0 96 20" xmlns="http://www.w3.org/2000/svg">
  <defs>
    <clipPath id="a">
      <path d="M375 0v400H0V0z"/>
    </clipPath>
    <clipPath id="b">
      <path d="M20.019 0v6.352H0V0z"/>
    </clipPath>
    <clipPath id="c">
      <path d="M3.205 0c1.726 0 3.17 1.443 3.17 3.202a3.18 3.18 0 0 1-3.17 3.167C1.444 6.369 0 4.961 0 3.202A3.215 3.215 0 0 1 3.205 0"/>
    </clipPath>
    <clipPath id="d">
      <path d="M3.205 0c1.761 0 3.17 1.443 3.17 3.202a3.155 3.155 0 0 1-3.17 3.167C1.445 6.369 0 4.961 0 3.202A3.215 3.215 0 0 1 3.205 0"/>
    </clipPath>
    <clipPath id="e">
      <path d="M3.135 0c1.796 0 3.24 1.443 3.24 3.202 0 1.76-1.444 3.167-3.24 3.167C1.373 6.369 0 4.961 0 3.202 0 1.442 1.373 0 3.135 0"/>
    </clipPath>
    <clipPath id="f">
      <path d="M3.205 0c1.726 0 3.17 1.4 3.17 3.15 0 1.785-1.444 3.22-3.17 3.22A3.214 3.214 0 0 1 0 3.15C0 1.4 1.444 0 3.205 0"/>
    </clipPath>
    <clipPath id="g">
      <path d="M13.188 0v6.37H0V0z"/>
    </clipPath>
    <clipPath id="h">
      <path d="M3.205 0c1.761 0 3.17 1.4 3.17 3.15 0 1.784-1.409 3.219-3.17 3.219A3.214 3.214 0 0 1 0 3.149C0 1.4 1.444 0 3.205 0"/>
    </clipPath>
    <clipPath id="i">
      <path d="M3.135 0c1.796 0 3.24 1.4 3.24 3.15a3.22 3.22 0 0 1-3.24 3.22C1.373 6.37 0 4.935 0 3.15 0 1.4 1.373 0 3.135 0"/>
    </clipPath>
    <clipPath id="j">
      <path d="M3.205 0c1.726 0 3.17 1.4 3.17 3.15 0 1.785-1.444 3.22-3.17 3.22A3.214 3.214 0 0 1 0 3.15C0 1.4 1.444 0 3.205 0"/>
    </clipPath>
    <clipPath id="k">
      <path d="M13.188 0v6.37H0V0z"/>
    </clipPath>
    <clipPath id="l">
      <path d="M3.205 0c1.761 0 3.17 1.4 3.17 3.15 0 1.784-1.409 3.219-3.17 3.219A3.214 3.214 0 0 1 0 3.149C0 1.4 1.444 0 3.205 0"/>
    </clipPath>
    <clipPath id="m">
      <path d="M3.135 0c1.796 0 3.24 1.4 3.24 3.15a3.22 3.22 0 0 1-3.24 3.22C1.373 6.37 0 4.935 0 3.15 0 1.4 1.373 0 3.135 0"/>
    </clipPath>
    <clipPath id="n">
      <path d="m62.787 0 6.31 15.534c.907 2.264 1.325 2.717 2.51 2.857l-.313 1.01h-7.042l.313-1.045c.907-.035 1.255-.384 1.255-.871 0-.244-.174-.801-.418-1.358l-1.29-3.17h-6.066l-1.116 2.96c-.209.523-.418 1.08-.418 1.428 0 .697.488.976 1.569 1.046l-.314 1.01h-5.473l.314-1.01c1.29-.14 1.778-1.01 2.51-2.926L61.01 0zM7.042 0c3.8 0 6.45 1.498 6.45 4.911 0 1.881-1.255 3.344-2.685 4.11 2.092.523 4.149 2.23 4.149 4.563 0 3.553-2.998 5.817-7.495 5.817H.244l.314-1.01c.941-.07 1.429-.767 1.429-1.742V2.786c0-1.323-.697-1.74-1.987-1.776L.314 0zm16.072 0c3.87 0 6.763 1.707 6.763 4.98 0 2.613-2.231 4.215-4.044 4.738.244.209.628.627 1.046 1.393l1.534 2.821c1.673 3.1 2.72 4.32 3.974 4.459l-.313 1.01h-4.01l-.07-.035c-1.01-.836-1.778-1.603-3.102-4.11L22.87 11.39c-.244-.453-.558-.802-1.5-.802h-.243v6.026c0 1.324.697 1.742 1.987 1.777L22.8 19.4h-6.937l.313-1.01c.942-.07 1.43-.767 1.43-1.742V2.786c0-1.323-.698-1.74-1.988-1.776L15.932 0zm16.978 0-.314 1.01c-.976.07-1.464.766-1.464 1.742v13.862c0 1.324.697 1.742 1.987 1.777l-.314 1.01H33.05l.313-1.01c.942-.07 1.43-.767 1.43-1.742V2.786c0-1.323-.698-1.74-1.987-1.776L33.119 0zm16.28 0-.662 2.403h-.802c-.209-.487-.383-.592-1.429-.592h-3.66v14.803c0 1.324.592 1.742 1.708 1.777l-.314 1.01h-6.938l.314-1.01c1.116-.07 1.709-.767 1.709-1.742V1.81H43.09c-.837 0-1.325.105-1.778.592h-.871L41.173 0h15.2zM7.218 9.996h-1.71v6.2c0 1.115.662 1.672 1.673 1.672h.105c2.197 0 3.66-1.567 3.66-4.11 0-2.473-1.394-3.762-3.73-3.762zM61.01 4.981l-2.336 6.2h4.706zM22.45 1.463c-.976 0-1.324.348-1.324 1.254V9.16h1.15c1.952 0 3.695-1.638 3.695-3.867 0-2.298-1.324-3.831-3.52-3.831zm-15.618 0c-.976 0-1.325.348-1.325 1.289v5.781h1.395C8.68 8.533 9.9 7.175 9.9 5.05c0-2.159-1.046-3.587-3.068-3.587"/>
    </clipPath>
  </defs>
  <g clip-path="url(#a)" transform="translate(-16 -24)">
    <g clip-path="url(#b)" transform="translate(16 37.648)">
      <g clip-path="url(#c)" transform="translate(13.644)">
        <path fill="#65D2F8" d="M0 0h6.375v6.352H0z"/>
      </g>
      <g clip-path="url(#d)" transform="translate(6.802)">
        <path fill="#65D2F8" d="M0 0h6.375v6.352H0z"/>
      </g>
      <g clip-path="url(#e)" transform="translate(-.017)">
        <path fill="#65D2F8" d="M.017 0h6.358v6.352H.017z"/>
      </g>
    </g>
    <g clip-path="url(#f)" transform="translate(29.644 24)">
      <path fill="#0056A2" d="M0 0h6.375v6.37H0z"/>
    </g>
    <g clip-path="url(#g)" transform="translate(16 24)">
      <g clip-path="url(#h)" transform="translate(6.813)">
        <path fill="#0056A2" d="M0 0h6.375v6.369H0z"/>
      </g>
      <g clip-path="url(#i)" transform="translate(-.017)">
        <path fill="#0056A2" d="M.017 0h6.358v6.37H.017z"/>
      </g>
    </g>
    <g clip-path="url(#j)" transform="translate(29.644 30.824)">
      <path fill="#00B2F2" d="M0 0h6.375v6.37H0z"/>
    </g>
    <g clip-path="url(#k)" transform="translate(16 30.824)">
      <g clip-path="url(#l)" transform="translate(6.813)">
        <path fill="#00B2F2" d="M0 0h6.375v6.369H0z"/>
      </g>
      <g clip-path="url(#m)" transform="translate(-.017)">
        <path fill="#00B2F2" d="M.017 0h6.358v6.37H.017z"/>
      </g>
    </g>
    <g clip-path="url(#n)" transform="translate(40.226 24.308)">
      <path fill="#0056A2" d="M0 0h71.608v19.4H0z"/>
    </g>
  </g>
</svg>
