<svg xmlns="http://www.w3.org/2000/svg" width="146.334" height="31" viewBox="0 0 146.334 31">
    <path id="Path_8323" data-name="Path 8323" d="M63.982,206.944a15.294,15.294,0,0,0-8.03,2.265v9.823h7.1l-7.086,7.086a2.173,2.173,0,1,0,3.062,3.063l7.072-7.072v7.112a2.172,2.172,0,1,0,4.331-.239V214.7H56.013a11.022,11.022,0,1,1-3.053,7.614v-.474a2.172,2.172,0,1,0-4.344,0c0,.158,0,.315,0,.474a15.369,15.369,0,1,0,15.369-15.37Zm37.321,5.5a6.9,6.9,0,0,0-6,2.9,6.35,6.35,0,0,0-2.284-2.148,6.237,6.237,0,0,0-3.034-.756,6.95,6.95,0,0,0-2.866.539,5.5,5.5,0,0,0-2.086,1.659v-1.578H80.951v18.575h4.465v-9.251a10.676,10.676,0,0,1,.526-3.9,3.025,3.025,0,0,1,1.176-1.442,3.542,3.542,0,0,1,4.594.786,5.668,5.668,0,0,1,.923,3.523v10.284H97.1v-9.251a8.97,8.97,0,0,1,.649-4.049,3.618,3.618,0,0,1,3.12-1.814,3.3,3.3,0,0,1,2.6,1.164,5.746,5.746,0,0,1,.9,3.665v10.284h4.464V220.805a9.258,9.258,0,0,0-1.325-5.338A7.03,7.03,0,0,0,101.3,212.44Zm17.633-.124a9.569,9.569,0,0,0-4.222.977,9.429,9.429,0,0,0-3.759,3.27,10.139,10.139,0,0,0-1.794,5.8,9.976,9.976,0,0,0,.977,4.322,9.393,9.393,0,0,0,3.554,4.043,9.706,9.706,0,0,0,5.282,1.524,9.022,9.022,0,0,0,6.13-2.341,8.9,8.9,0,0,0,2.772-4.154H122.96a4.572,4.572,0,0,1-4.135,2.415,4.93,4.93,0,0,1-3.1-1.1,5.087,5.087,0,0,1-1.864-2.749H128.3a12.9,12.9,0,0,0,.254-2.248,9.713,9.713,0,0,0-2.285-6.278A9.038,9.038,0,0,0,118.935,212.316Zm-5.207,8.414a5.6,5.6,0,0,1,1.894-3.147,5.148,5.148,0,0,1,3.369-1.188,4.884,4.884,0,0,1,3.536,1.344,5.907,5.907,0,0,1,1.665,2.991Zm53.331-13.325a5.83,5.83,0,0,0-2.03,1.623,7.527,7.527,0,0,0-1.506,4.463v18.142h4.465V217.139H170.6l-2.046-4.08h-.524a2.079,2.079,0,0,1,.6-1.381,3.946,3.946,0,0,1,2.209-.471v-4.334c-.471-.036-.885-.056-1.232-.056A5.8,5.8,0,0,0,167.06,207.406Zm22.809,5.653-4.477,11.918-4.209-11.918h-5.1l6.8,16.835-3.43,7.925h4.811l10.68-24.759Zm.369,18.575H194.7v-4.465h-4.465Zm-18.647,0h4.464v-24.76h-4.464Zm-27.141-18.547v2.331a7.4,7.4,0,0,0-1.43-1.344,8.042,8.042,0,0,0-4.81-1.634,8.718,8.718,0,0,0-6.694,2.941,9.78,9.78,0,0,0-2.595,6.874,11.5,11.5,0,0,0,.762,4.21,8.844,8.844,0,0,0,3.337,4.266,8.54,8.54,0,0,0,9.944-.148,8.23,8.23,0,0,0,1.486-1.233v2.285h4.08V217.167h2.2L148.7,213.1Zm-1.58,13.365a5.066,5.066,0,0,1-3.974,1.74,5.174,5.174,0,0,1-4.185-1.962,5.787,5.787,0,0,1-1.325-3.79,6.67,6.67,0,0,1,.389-2.191,6.034,6.034,0,0,1,1.041-1.9,5.088,5.088,0,0,1,4.061-1.832,5.4,5.4,0,0,1,3.993,1.722,5.8,5.8,0,0,1,1.449,4.1A6,6,0,0,1,142.872,226.451Zm19.886-9.293-2.046-4.079h-5.061v-5.1l-4.464.708v16.761a7.488,7.488,0,0,0,1.5,4.464,5.864,5.864,0,0,0,2.032,1.622,5.791,5.791,0,0,0,2.544.589c.347,0,.761-.019,1.233-.055v-4.335a3.95,3.95,0,0,1-2.211-.471,2.5,2.5,0,0,1-.638-1.813v-8.29Z" transform="translate(-48.613 -206.818)" fill="#161615"/>
  </svg>
