<?xml version="1.0" encoding="UTF-8" standalone="no"?>
<!DOCTYPE svg PUBLIC "-//W3C//DTD SVG 1.1//EN" "http://www.w3.org/Graphics/SVG/1.1/DTD/svg11.dtd">
<svg width="100%" height="100%" viewBox="0 0 5871 3686" version="1.1" xmlns="http://www.w3.org/2000/svg" xmlns:xlink="http://www.w3.org/1999/xlink" xml:space="preserve" xmlns:serif="http://www.serif.com/" style="fill-rule:evenodd;clip-rule:evenodd;stroke-linejoin:round;stroke-miterlimit:2;">
    <g id="path27" transform="matrix(43.0141,0,0,43.0141,2769.23,-14903)">
        <circle cx="68.395" cy="381.977" r="3.709" style="fill:rgb(102,65,214);"/>
    </g>
    <g id="path23" transform="matrix(43.0141,0,0,43.0141,2769.23,-14903)">
        <path d="M-47.048,346.477C-51.834,346.563 -56.565,347.279 -58.881,348.374C-60.816,349.289 -62.538,351.062 -63.537,353.17C-64.35,354.886 -64.379,355.071 -64.379,358.389C-64.379,361.707 -64.352,361.878 -63.594,363.246C-62.504,365.214 -61.164,366.273 -57.633,367.954C-52.871,370.221 -52.81,370.255 -52.269,370.991C-51.924,371.459 -51.817,371.879 -51.942,372.272C-52.276,373.323 -53.553,373.602 -58.029,373.602C-62.63,373.602 -63.844,373.884 -64.128,375.015C-64.218,375.374 -64.252,377.759 -64.203,380.315C-64.093,386.101 -64.268,385.84 -60.337,386.074C-58.777,386.168 -55.119,386.205 -52.209,386.158C-44.033,386.025 -40.649,385.207 -38.216,382.774C-36.659,381.217 -35.723,379.317 -35.233,376.717C-34.517,372.923 -35.519,369.714 -38.162,367.337C-39.709,365.947 -40.411,365.569 -44.17,364.103C-47.164,362.935 -47.909,362.377 -47.909,361.309C-47.909,359.529 -46.524,359.05 -41.37,359.05C-35.849,359.05 -36.201,359.449 -36.201,353.212C-36.201,350.478 -36.317,348.217 -36.471,347.929C-36.843,347.234 -38.128,346.945 -42.331,346.611C-43.851,346.49 -45.452,346.449 -47.048,346.477L-47.048,346.477ZM-6.043,346.586L-18.543,346.671C-25.418,346.717 -31.24,346.851 -31.481,346.968C-32.366,347.399 -32.561,348.608 -32.596,353.86C-32.639,360.363 -32.825,360.062 -28.71,360.166L-25.783,360.241L-25.855,372.285C-25.922,383.68 -25.9,384.352 -25.441,384.752C-25.175,384.985 -24.778,385.247 -24.56,385.334C-24.341,385.422 -21.543,385.426 -18.342,385.342C-13.073,385.205 -12.471,385.143 -11.992,384.681C-11.482,384.19 -11.458,383.734 -11.33,372.206L-11.198,360.24L-8.58,360.108C-4.929,359.924 -5.049,360.14 -4.818,353.323L-4.638,347.992L-5.341,347.289L-6.043,346.586ZM41.562,346.615L40.912,347.264L40.263,347.914L40.263,365.798C40.263,381.065 40.32,383.793 40.654,384.439C40.87,384.855 41.197,385.257 41.382,385.331L41.382,385.332C41.567,385.406 44.004,385.476 46.797,385.488C51.804,385.508 51.886,385.5 52.618,384.868L53.36,384.227L53.36,376.381L54.683,376.316C60.535,376.03 64.197,375.097 67.048,373.169C70.722,370.684 72.124,367.246 72.104,360.77C72.08,353.27 69.349,349.184 63.247,347.519C61.381,347.01 54.794,346.637 47.461,346.625L41.562,346.615ZM52.963,359.315L54.25,359.315C57.86,359.315 59.698,360.289 59.698,362.204C59.698,363.397 59.084,364.232 57.808,364.772C56.804,365.197 53.444,365.544 53.162,365.252C53.053,365.14 52.963,363.758 52.963,362.181L52.963,359.315ZM-3.376,391.329C-4.856,391.329 -8.096,391.359 -10.864,391.376C-10.84,391.412 -10.817,391.443 -10.794,391.483C-10.794,391.483 -4.053,401.211 -3.504,401.955C-2.953,402.7 -3.045,403.236 -3.459,403.659C-5.052,405.284 -8.02,408.297 -6.691,413.107C-5.339,418.001 -3.434,420.646 -2.502,421.596C-1.065,423.061 -1.585,424.109 -3.041,423.187C-7.23,420.536 -13.604,425.368 -6.023,432.075L-3.443,432.075C2.543,432.075 2.785,432.003 3.228,430.091C3.363,429.509 3.478,426.592 3.484,423.608C3.49,420.625 3.587,418.038 3.701,417.859C3.831,417.654 4.534,418.865 5.598,421.127C7.97,426.171 7.783,425.99 10.63,425.99C12.508,425.99 13.065,425.898 13.437,425.527C13.692,425.272 14.739,423.337 15.762,421.227L17.624,417.391L17.924,424.27C18.089,428.053 18.242,431.176 18.264,431.208C18.285,431.241 18.654,431.449 19.083,431.672C19.703,431.992 20.905,432.075 24.913,432.075C30.434,432.075 30.991,431.945 31.468,430.537C31.609,430.123 31.658,422.059 31.586,411.193L31.462,392.559L30.848,391.944C30.243,391.34 30.143,391.329 24.547,391.329C17.868,391.329 18.118,391.227 16.764,394.504C16.313,395.596 15.159,398.394 14.2,400.722C11.478,407.328 10.835,408.793 10.66,408.788C10.571,408.786 9.88,407.267 9.125,405.414C6.396,398.72 5.577,396.739 5.196,395.92C4.983,395.461 4.809,395.018 4.809,394.935C4.809,394.29 3.341,391.877 2.798,391.63C2.373,391.436 0.178,391.329 -3.376,391.329L-3.376,391.329ZM-34.263,391.646C-36.146,391.614 -39.379,391.652 -45.15,391.74C-57.906,391.934 -58.002,391.939 -58.579,392.517C-59.104,393.042 -59.18,393.477 -59.354,396.956C-59.629,402.462 -59.484,404.413 -58.742,405.155C-58.213,405.685 -57.836,405.759 -55.245,405.839L-52.341,405.928L-52.341,431.025L-51.481,431.572C-50.673,432.086 -50.359,432.109 -46.28,431.965C-43.892,431.88 -41.177,431.811 -40.248,431.811C-38.807,431.811 -38.463,431.715 -37.909,431.162L-37.26,430.512L-37.26,405.881L-35.028,405.881C-30.803,405.881 -30.742,405.788 -30.496,398.967C-30.393,396.109 -30.386,393.463 -30.481,393.085C-30.58,392.687 -31.001,392.218 -31.478,391.971C-31.848,391.78 -32.38,391.678 -34.263,391.646L-34.263,391.646ZM47.211,391.858C40.056,391.858 35.277,391.96 34.982,392.118C34.716,392.26 34.393,392.707 34.264,393.11C34.134,393.517 34.074,402.09 34.128,412.406C34.223,430.363 34.243,430.986 34.741,431.522C35.249,432.067 35.431,432.075 46.769,432.075C58.883,432.075 59.503,432.018 59.943,430.873C60.157,430.314 60.157,421.4 59.943,420.842C59.566,419.86 58.342,419.601 52.998,419.368C50.141,419.244 47.774,419.135 47.738,419.126C47.701,419.117 47.672,418.589 47.672,417.951L47.672,416.792L50.516,416.615C53.597,416.422 54.727,416.122 54.924,415.444C54.993,415.205 55.086,413.496 55.131,411.647C55.233,407.344 55.383,407.489 50.796,407.477L47.439,407.469L47.258,406.259C47.158,405.593 47.183,404.942 47.313,404.812C47.443,404.682 49.571,404.507 52.042,404.423C60.589,404.133 60.107,404.522 60.107,397.907C60.107,393.319 60.078,393.054 59.531,392.471L58.956,391.859L47.211,391.858Z" style="fill:rgb(22,1,31);fill-rule:nonzero;"/>
    </g>
    <g id="path24" transform="matrix(43.0141,0,0,43.0141,2769.23,-14903)">
        <path d="M18.658,347.012C17.839,346.973 17.002,346.979 16.149,347.03C3.896,347.764 -4.915,359.363 -2.436,371.495C-1.642,375.378 1.198,380.305 3.971,382.607C6.919,385.055 9.202,386.229 12.89,387.195C14.325,387.571 15.487,387.662 18.05,387.598C20.955,387.526 21.662,387.412 23.87,386.661C26.671,385.709 27.764,385.128 30.186,383.307C33.245,381.008 36.167,376.62 37.225,372.74C37.911,370.222 38.043,365.976 37.518,363.336C36.968,360.571 34.981,356.37 33.295,354.408C29.301,349.762 24.396,347.285 18.658,347.012L18.658,347.012ZM11.435,359.114L15.404,359.114L15.404,375.518L11.435,375.518L11.435,359.114ZM19.637,359.114L23.606,359.114L23.606,375.518L19.637,375.518L19.637,359.114ZM-12.289,391.45C-18.601,391.499 -25.121,391.599 -25.491,391.899L-26.116,392.405L-26.188,411.494L-26.259,430.582L-24.702,432.139L-8.991,432.139C-10.733,431.21 -12.902,429.561 -14.34,426.662C-16.974,421.357 -13.503,416.203 -8.116,418.022C-13.263,412.111 -14.34,408.473 -14.34,408.473C-14.34,408.473 -4.388,406.307 -12.099,392.153C-12.24,391.894 -12.293,391.655 -12.289,391.45L-12.289,391.45Z" style="fill:rgb(102,65,214);fill-rule:nonzero;"/>
    </g>
</svg>
