<?xml version="1.0" encoding="UTF-8" standalone="no"?>
<svg
   xmlns:dc="http://purl.org/dc/elements/1.1/"
   xmlns:cc="http://creativecommons.org/ns#"
   xmlns:rdf="http://www.w3.org/1999/02/22-rdf-syntax-ns#"
   xmlns:svg="http://www.w3.org/2000/svg"
   xmlns="http://www.w3.org/2000/svg"
   width="32.757648mm"
   height="24.109631mm"
   viewBox="0 0 32.757648 24.109631"
   version="1.1"
   id="svg907">
  <defs
     id="defs901" />
  <metadata
     id="metadata904">
    <rdf:RDF>
      <cc:Work
         rdf:about="">
        <dc:format>image/svg+xml</dc:format>
        <dc:type
           rdf:resource="http://purl.org/dc/dcmitype/StillImage" />
        <dc:title></dc:title>
      </cc:Work>
    </rdf:RDF>
  </metadata>
  <g
     id="layer1"
     transform="translate(161.52168,46.072672)">
    <path
       style="fill:none;stroke:#000000;stroke-opacity:1"
       stroke-width="0.79375"
       stroke="#fff800"
       d="m -150.8359,-22.504197 c -3.76264,0.983456 -8.10525,-3.160448 -9.69963,-9.256713 -1.59438,-6.096265 0.16378,-11.836135 3.92668,-12.819592 3.76291,-0.983456 8.10525,3.159919 9.69963,9.256449 1.59438,6.096529 -0.16404,11.836135 -3.92695,12.819856"
       data-name="Path 51"
       id="Path_51" />
    <path
       transform="matrix(0.26458333,0,0,0.26458333,-161.52168,-46.072672)"
       d="M 97.091797 -0.38867188 C 88.377264 -0.37208818 78.56904 2.0400524 69.050781 6.9179688 C 58.17281 12.492704 49.683083 20.254103 44.712891 28.466797 C 39.742698 36.679495 38.267439 45.540709 41.996094 52.818359 C 45.724862 60.096218 53.782067 64.068628 63.351562 64.830078 C 69.016614 65.280849 75.274122 64.615209 81.691406 62.857422 L 80.152344 62.857422 A 7.5590551 7.5590551 0 0 1 74.689453 60.519531 C 70.801518 61.148927 67.072406 61.329243 63.646484 61.056641 C 54.933502 60.363343 48.329692 56.89694 45.355469 51.091797 C 42.381132 45.286446 43.420013 37.899432 47.945312 30.421875 C 52.470616 22.944322 60.46033 15.572421 70.777344 10.285156 C 81.09432 4.9979197 91.739784 2.8219683 100.45312 3.515625 C 109.16649 4.2092817 115.77142 7.6757524 118.74609 13.480469 C 121.71903 19.285233 120.67949 26.680245 116.1543 34.158203 C 113.63746 38.317269 110.0293 42.434269 105.5625 46.185547 L 105.5625 47.740234 L 109.58203 47.740234 C 113.61865 44.115063 116.93371 40.170131 119.38867 36.113281 C 124.35871 27.900236 125.8384 19.038953 122.11133 11.761719 C 118.38199 4.4844342 110.32574 0.51184311 100.75586 -0.25 C 99.559616 -0.34523039 98.33673 -0.39104093 97.091797 -0.38867188 z "
       style="color:#000000;font-style:normal;font-variant:normal;font-weight:normal;font-stretch:normal;font-size:medium;line-height:normal;font-family:sans-serif;font-variant-ligatures:normal;font-variant-position:normal;font-variant-caps:normal;font-variant-numeric:normal;font-variant-alternates:normal;font-variant-east-asian:normal;font-feature-settings:normal;font-variation-settings:normal;text-indent:0;text-align:start;text-decoration:none;text-decoration-line:none;text-decoration-style:solid;text-decoration-color:#000000;letter-spacing:normal;word-spacing:normal;text-transform:none;writing-mode:lr-tb;direction:ltr;text-orientation:mixed;dominant-baseline:auto;baseline-shift:baseline;text-anchor:start;white-space:normal;shape-padding:0;shape-margin:0;inline-size:0;clip-rule:nonzero;display:inline;overflow:visible;visibility:visible;isolation:auto;mix-blend-mode:normal;color-interpolation:sRGB;color-interpolation-filters:linearRGB;solid-color:#000000;solid-opacity:1;vector-effect:none;fill:#000000;fill-opacity:1;fill-rule:nonzero;stroke:none;stroke-width:8.0000127;stroke-linecap:round;stroke-linejoin:miter;stroke-miterlimit:4;stroke-dasharray:none;stroke-dashoffset:0;stroke-opacity:1;color-rendering:auto;image-rendering:auto;shape-rendering:auto;text-rendering:auto;enable-background:accumulate;stop-color:#000000;opacity:1;stop-opacity:1"
       id="path1678" />
    <path
       style="stroke:#000000;stroke-opacity:1"
       stroke-width="0.79375"
       stroke-miterlimit="10"
       stroke-linecap="round"
       stroke="#fff800"
       fill="none"
       d="m -155.07524,-40.09269 a 7.2950917,7.2950917 0 0 0 1.35288,6.633384 7.2940333,7.2940333 0 0 1 1.35288,6.632855"
       data-name="Path 247"
       id="Path_247" />
    <path
       style="stroke:#000000;stroke-opacity:1;stroke-width:0.793845;stroke-miterlimit:10;stroke-dasharray:none"
       stroke-width="0.793845"
       stroke-miterlimit="10"
       stroke-linecap="round"
       stroke="#fff800"
       fill="none"
       d="m -133.80833,-40.657773 a 7.2959561,7.2959561 0 0 0 -6.00374,3.13018 7.2948977,7.2948977 0 0 1 -6.00323,3.130043"
       data-name="Path 248"
       id="Path_248" />
    <path
       id="path1574-9"
       d="m -130.86895,-31.440855 h -9.44586"
       style="fill:none;stroke:#000000;stroke-width:1.05833333;stroke-linecap:round;stroke-linejoin:miter;stroke-miterlimit:4;stroke-dasharray:none;stroke-opacity:1;font-variation-settings:normal;opacity:1;vector-effect:none;fill-opacity:1;stroke-dashoffset:0;stop-color:#000000;stop-opacity:1" />
    <path
       id="path1574-9-0-0"
       d="m -135.59188,-36.16379 v 9.44587"
       style="font-variation-settings:normal;opacity:1;vector-effect:none;fill:none;fill-opacity:1;stroke:#000000;stroke-width:1.05833333;stroke-linecap:round;stroke-linejoin:miter;stroke-miterlimit:4;stroke-dasharray:none;stroke-dashoffset:0;stroke-opacity:1;stop-color:#000000;stop-opacity:1" />
  </g>
</svg>
