<?xml version="1.0" encoding="UTF-8" standalone="no"?>
<svg
   xmlns:dc="http://purl.org/dc/elements/1.1/"
   xmlns:cc="http://creativecommons.org/ns#"
   xmlns:rdf="http://www.w3.org/1999/02/22-rdf-syntax-ns#"
   xmlns:svg="http://www.w3.org/2000/svg"
   xmlns="http://www.w3.org/2000/svg"
   width="32.757648mm"
   height="24.109631mm"
   viewBox="0 0 32.757648 24.109631"
   version="1.1"
   id="svg907">
  <defs
     id="defs901" />
  <metadata
     id="metadata904">
    <rdf:RDF>
      <cc:Work
         rdf:about="">
        <dc:format>image/svg+xml</dc:format>
        <dc:type
           rdf:resource="http://purl.org/dc/dcmitype/StillImage" />
        <dc:title></dc:title>
      </cc:Work>
    </rdf:RDF>
  </metadata>
  <g
     id="layer1"
     transform="translate(161.52168,46.072672)">
    <path
       transform="matrix(0.26458333,0,0,0.26458333,-161.52168,-46.072672)"
       d="M 22.658203 6.9804688 C 21.436206 6.9955868 20.230132 7.1555763 19.046875 7.4648438 C 12.736425 9.1141161 7.9193246 14.816393 5.359375 23.173828 C 2.7994632 31.531259 2.6193297 42.399699 5.5527344 53.615234 C 8.4859878 64.830816 13.963771 74.215584 20.287109 80.25 C 26.610448 86.284416 33.598055 88.89735 39.908203 87.248047 C 46.218767 85.598298 51.033611 79.90431 53.59375 71.546875 C 54.37316 69.002572 54.928585 66.222332 55.246094 63.273438 C 49.351381 61.387227 44.608984 57.918234 41.996094 52.818359 C 38.267439 45.540709 39.742698 36.679495 44.712891 28.466797 C 45.382911 27.359662 46.122798 26.262262 46.917969 25.175781 C 44.478547 20.959326 41.671344 17.328915 38.667969 14.462891 C 33.530419 9.5602535 27.95351 6.9151094 22.658203 6.9804688 z M 24.382812 21.099609 A 1.5004725 1.5004725 0 0 1 24.78125 21.158203 A 1.5004725 1.5004725 0 0 1 25.808594 23.017578 C 23.433576 31.236044 25.238799 40.088728 30.642578 46.720703 C 36.6662 54.112665 38.678733 63.995673 36.03125 73.15625 A 1.5004725 1.5004725 0 0 1 34.171875 74.181641 A 1.5004725 1.5004725 0 0 1 33.152344 72.322266 C 35.527361 64.104477 33.722063 55.250333 28.318359 48.619141 C 22.294737 41.226423 20.274429 31.344779 22.921875 22.183594 A 1.5004725 1.5004725 0 0 1 24.382812 21.099609 z M 48.908203 28.916016 C 48.572903 29.4173 48.249625 29.919033 47.945312 30.421875 C 43.420014 37.899432 42.381132 45.286446 45.355469 51.091797 C 47.313367 54.913258 50.851588 57.714173 55.521484 59.384766 C 55.718799 53.661345 55.057089 47.437996 53.400391 41.103516 C 52.257109 36.731864 50.723658 32.642341 48.908203 28.916016 z "
       style="color:#000000;font-style:normal;font-variant:normal;font-weight:normal;font-stretch:normal;font-size:medium;line-height:normal;font-family:sans-serif;font-variant-ligatures:normal;font-variant-position:normal;font-variant-caps:normal;font-variant-numeric:normal;font-variant-alternates:normal;font-variant-east-asian:normal;font-feature-settings:normal;font-variation-settings:normal;text-indent:0;text-align:start;text-decoration:none;text-decoration-line:none;text-decoration-style:solid;text-decoration-color:#000000;letter-spacing:normal;word-spacing:normal;text-transform:none;writing-mode:lr-tb;direction:ltr;text-orientation:mixed;dominant-baseline:auto;baseline-shift:baseline;text-anchor:start;white-space:normal;shape-padding:0;shape-margin:0;inline-size:0;clip-rule:nonzero;display:inline;overflow:visible;visibility:visible;isolation:auto;mix-blend-mode:normal;color-interpolation:sRGB;color-interpolation-filters:linearRGB;solid-color:#000000;solid-opacity:1;vector-effect:none;fill:#000000;fill-opacity:1;fill-rule:nonzero;stroke:none;stroke-width:3.77953;stroke-linecap:butt;stroke-linejoin:miter;stroke-miterlimit:4;stroke-dasharray:none;stroke-dashoffset:0;stroke-opacity:1;color-rendering:auto;image-rendering:auto;shape-rendering:auto;text-rendering:auto;enable-background:accumulate;stop-color:#000000"
       id="path1052" />
    <path
       transform="matrix(0.26458333,0,0,0.26458333,-161.52168,-46.072672)"
       d="M 97.099609 3.390625 C 89.083698 3.414706 79.804698 5.6588235 70.777344 10.285156 C 60.46033 15.572421 52.470616 22.944322 47.945312 30.421875 C 43.42001 37.899432 42.381132 45.286446 45.355469 51.091797 C 48.329692 56.89694 54.933502 60.363343 63.646484 61.056641 C 67.07183 61.329198 70.800275 61.148674 74.6875 60.519531 A 7.5590549 7.5590549 0 0 1 72.59375 55.298828 A 7.5590549 7.5590549 0 0 1 80.152344 47.740234 L 90.443359 47.740234 L 90.443359 37.449219 A 7.5590548 7.5590548 0 0 1 98.001953 29.890625 A 7.5590548 7.5590548 0 0 1 105.5625 37.449219 L 105.5625 46.185547 C 110.0293 42.434268 113.63747 38.317271 116.1543 34.158203 C 120.67949 26.680245 121.71903 19.28523 118.74609 13.480469 C 115.77142 7.6757492 109.16649 4.2092817 100.45312 3.515625 C 99.363965 3.4289179 98.24474 3.3871849 97.099609 3.390625 z M 104.75 18.964844 A 1.5001795 1.5001795 0 0 1 106.24023 20.470703 A 1.5001795 1.5001795 0 0 1 104.74219 21.962891 C 96.186282 21.946514 88.168394 26.130124 83.283203 33.154297 C 77.838605 40.983747 68.895841 45.647343 59.359375 45.628906 A 1.5001795 1.5001795 0 0 1 57.859375 44.123047 A 1.5001795 1.5001795 0 0 1 59.365234 42.625 C 67.920497 42.641543 75.933925 38.465307 80.818359 31.441406 C 86.263714 23.611775 95.213005 18.946589 104.75 18.964844 z "
       style="color:#000000;font-style:normal;font-variant:normal;font-weight:normal;font-stretch:normal;font-size:medium;line-height:normal;font-family:sans-serif;font-variant-ligatures:normal;font-variant-position:normal;font-variant-caps:normal;font-variant-numeric:normal;font-variant-alternates:normal;font-variant-east-asian:normal;font-feature-settings:normal;font-variation-settings:normal;text-indent:0;text-align:start;text-decoration:none;text-decoration-line:none;text-decoration-style:solid;text-decoration-color:#000000;letter-spacing:normal;word-spacing:normal;text-transform:none;writing-mode:lr-tb;direction:ltr;text-orientation:mixed;dominant-baseline:auto;baseline-shift:baseline;text-anchor:start;white-space:normal;shape-padding:0;shape-margin:0;inline-size:0;clip-rule:nonzero;display:inline;overflow:visible;visibility:visible;isolation:auto;mix-blend-mode:normal;color-interpolation:sRGB;color-interpolation-filters:linearRGB;solid-color:#000000;solid-opacity:1;vector-effect:none;fill:#000000;fill-opacity:1;fill-rule:nonzero;stroke:none;stroke-width:3.77953;stroke-linecap:butt;stroke-linejoin:miter;stroke-miterlimit:4;stroke-dasharray:none;stroke-dashoffset:0;stroke-opacity:1;color-rendering:auto;image-rendering:auto;shape-rendering:auto;text-rendering:auto;enable-background:accumulate;stop-color:#000000"
       id="path1676" />
    <path
       id="path1574-9"
       d="m -130.86895,-31.440855 h -9.44586"
       style="fill:none;stroke:#000000;stroke-width:1.5875;stroke-linecap:round;stroke-linejoin:miter;stroke-miterlimit:4;stroke-dasharray:none;stroke-opacity:1;font-variation-settings:normal;opacity:1;vector-effect:none;fill-opacity:1;stroke-dashoffset:0;stop-color:#000000;stop-opacity:1" />
    <path
       style="font-variation-settings:normal;opacity:1;vector-effect:none;fill:none;fill-opacity:1;stroke:#000000;stroke-width:1.5875;stroke-linecap:round;stroke-linejoin:miter;stroke-miterlimit:4;stroke-dasharray:none;stroke-dashoffset:0;stroke-opacity:1;stop-color:#000000;stop-opacity:1"
       d="m -135.59188,-36.16379 v 9.44587"
       id="path1574-9-0" />
  </g>
</svg>
