<?xml version="1.0" encoding="UTF-8" standalone="no"?>
<!-- Created with Inkscape (http://www.inkscape.org/) -->

<svg
   width="43.248489mm"
   height="128.13857mm"
   viewBox="0 0 42.42481 125.69813"
   version="1.1"
   id="svg1"
   xmlns="http://www.w3.org/2000/svg"
   xmlns:svg="http://www.w3.org/2000/svg">
  <defs
     id="defs1" />
  <g
     id="layer1"
     transform="rotate(90,49.085048,4.523975)">
    <path
       id="Path_51"
       class="bean"
       d="m 88.42854,31.244394 c -0.36022,0.0047 -0.71797,0.05198 -1.07074,0.144177 -3.7629,0.983456 -5.52127,6.723121 -3.92689,12.819375 1.59431,6.095984 5.93663,10.239763 9.69915,9.256797 2.45833,-0.642668 4.06047,-3.315526 4.43177,-6.791315 -1.75636,-0.450556 -3.17032,-1.397476 -3.91449,-2.849956 -0.96595,-1.885363 -0.58614,-4.188857 0.71675,-6.341732 0.2573,-0.425162 0.55207,-0.845855 0.87954,-1.258837 -1.80503,-3.074985 -4.36387,-5.010449 -6.81509,-4.978509 z m 0.36742,4.246253 a 0.396875,0.396875 0 0 1 0.20567,0.0041 0.396875,0.396875 0 0 1 0.27078,0.491442 c -0.6284,2.174502 -0.15026,4.517742 1.27951,6.272485 1.59373,1.955752 2.12674,4.570193 1.42627,6.99389 a 0.396875,0.396875 0 0 1 -0.49144,0.271298 0.396875,0.396875 0 0 1 -0.2713,-0.491442 c 0.62839,-2.174325 0.15024,-4.517432 -1.27951,-6.271969 -1.59372,-1.955954 -2.12673,-4.57055 -1.42627,-6.994403 a 0.396875,0.396875 0 0 1 0.28629,-0.275437 z"
       style="fill:#e0e0e0;fill-opacity:1;stroke-width:0.264583" />
    <path
       id="path3"
       class="bean"
       style="color:#000000;fill:#e0e0e0;fill-opacity:1;stroke-width:0;stroke-dasharray:none"
       d="m 108.13586,30.690423 c -2.14012,0.0061 -4.6101,0.60412 -7.01197,1.835031 -2.74501,1.406763 -4.87131,3.368624 -6.08077,5.367112 -1.20945,1.998493 -1.4969,3.993007 -0.68937,5.56917 0.80752,1.576125 2.59455,2.507565 4.92322,2.69286 2.32867,0.185293 5.16303,-0.394935 7.90804,-1.801442 2.74499,-1.406485 4.87082,-3.368003 6.08025,-5.366596 1.20943,-1.998591 1.49653,-3.993669 0.68937,-5.569686 h 5.3e-4 c -0.80764,-1.576006 -2.59445,-2.507472 -4.92322,-2.69286 -0.29109,-0.02318 -0.59033,-0.03445 -0.89607,-0.03359 z m 2.02262,4.223514 a 0.39692201,0.39692201 0 0 1 0.39687,0.39791 0.39692201,0.39692201 0 0 1 -0.39791,0.396359 c -2.26374,-0.0043 -4.38464,1.101034 -5.67717,2.959507 -1.44055,2.071537 -3.80719,3.305443 -6.33036,3.300574 a 0.39692201,0.39692201 0 0 1 -0.39584,-0.397907 0.39692201,0.39692201 0 0 1 0.3979,-0.396359 c 2.26358,0.0044 4.38433,-1.101108 5.67666,-2.95951 1.44075,-2.071584 3.80652,-3.305402 6.32985,-3.300574 z" />
    <path
       id="path24"
       class="bean"
       style="color:#000000;fill:#e0e0e0;fill-opacity:1;stroke-width:0.264583;-inkscape-stroke:none"
       d="m 58.798918,24.773557 c -2.14013,0.0061 -4.6101,0.603605 -7.01199,1.834513 -2.745,1.406763 -4.87129,3.368627 -6.08076,5.367115 -1.20943,1.998488 -1.4969,3.993004 -0.68937,5.569169 0.80754,1.576121 2.59453,2.507562 4.92321,2.692858 1.26722,0.10083 2.68452,-0.02679 4.15531,-0.389123 -0.19667,-0.876374 -0.1878,-1.758251 0.0708,-2.609659 0.61571,-2.027023 2.48962,-3.419875 4.92271,-4.062286 1.06447,-0.281056 2.24237,-0.423111 3.48816,-0.415996 0.48477,0.0028 0.98089,0.03144 1.48362,0.0801 1.09519,-1.92138 1.33339,-3.824965 0.55705,-5.34076 -0.80756,-1.575887 -2.59418,-2.507374 -4.92267,-2.692858 v 0 c -0.29094,-0.02315 -0.59,-0.03394 -0.89554,-0.03307 z m 1.76165,3.816305 a 0.39711145,0.39711145 0 0 1 0.42373,0.36897 0.39711145,0.39711145 0 0 1 -0.36949,0.42323 c -2.2596,0.153876 -4.299,1.405551 -5.4591,3.350699 -1.29296,2.168133 -3.5684,3.564742 -6.08695,3.736205 a 0.39711145,0.39711145 0 0 1 -0.42322,-0.368969 0.39711145,0.39711145 0 0 1 0.36946,-0.42323 c 2.25944,-0.153824 4.29869,-1.405639 5.45859,-3.3507 1.29315,-2.168197 3.56828,-3.564683 6.08698,-3.736205 z" />
    <path
       id="path22"
       class="bean"
       style="color:#000000;fill:#e0e0e0;fill-opacity:1;stroke-width:0.264581;-inkscape-stroke:none"
       d="m 62.571798,33.555967 c -1.18258,-0.007 -2.29174,0.126672 -3.27991,0.387572 -2.25859,0.596345 -3.8514,1.830782 -4.36612,3.525367 -0.51473,1.694553 0.12255,3.606091 1.66811,5.357812 1.54557,1.751722 3.9864,3.304971 6.93756,4.201295 2.95117,0.896313 5.84359,0.962827 8.10234,0.366385 2.25877,-0.59644 3.85188,-1.830846 4.36615,-3.524848 0.5147,-1.694366 -0.12266,-3.60598 -1.66812,-5.357813 -1.54545,-1.751832 -3.98666,-3.304558 -6.93808,-4.200779 -1.66021,-0.504129 -3.30148,-0.746006 -4.82193,-0.754991 z m -3.42665,4.124812 a 0.39692201,0.39692201 0 0 1 0.37259,0.136943 c 1.45061,1.737667 3.66041,2.652704 5.91487,2.449462 2.51314,-0.226433 4.97834,0.794576 6.59548,2.731617 a 0.39692201,0.39692201 0 0 1 -0.0501,0.559654 0.39692201,0.39692201 0 0 1 -0.55914,-0.05064 c -1.45079,-1.737773 -3.66078,-2.652604 -5.9154,-2.449462 -2.51299,0.226552 -4.97848,-0.794663 -6.59545,-2.731617 a 0.39692201,0.39692201 0 0 1 0.0506,-0.559138 0.39692201,0.39692201 0 0 1 0.18655,-0.08682 z" />
    <path
       id="path15"
       class="bean"
       style="color:#000000;fill:#e0e0e0;fill-opacity:1;stroke-width:0.264702;-inkscape-stroke:none"
       d="m 71.084038,16.7288 c -0.808896,0.114439 -1.533423,0.410906 -2.137344,0.896435 -1.380919,1.109814 -1.932851,3.048702 -1.643944,5.367942 0.289135,2.31921 1.430282,4.979408 3.363671,7.384573 1.933434,2.405194 4.285361,4.091722 6.488071,4.872777 2.202671,0.781061 4.215084,0.659087 5.59614,-0.450904 1.381059,-1.109974 1.93203,-3.049118 1.642856,-5.368316 -0.289135,-2.319204 -1.429989,-4.979025 -3.363108,-7.384131 -1.933136,-2.405082 -4.285625,-4.091135 -6.488488,-4.872198 -1.23912,-0.439345 -2.417917,-0.593257 -3.457854,-0.446178 z m 0.809458,3.563554 a 0.39692201,0.39692201 0 0 1 0.445757,0.341641 c 0.297198,2.243981 1.674653,4.19884 3.688473,5.232432 2.24486,1.152316 3.781945,3.333492 4.112949,5.835021 a 0.39692201,0.39692201 0 0 1 -0.341113,0.445706 0.39692201,0.39692201 0 0 1 -0.445787,-0.341637 C 79.056554,29.561365 77.679258,27.606856 75.665322,26.573082 73.420548,25.420956 71.882842,23.23951 71.551858,20.73813 a 0.39692201,0.39692201 0 0 1 0.341638,-0.445776 z" />
    <path
       id="path5"
       style="color:#000000;fill:#e0e0e0;fill-opacity:1;stroke-width:0.264583;-inkscape-stroke:none"
       class="bean"
       d="m 119.44474,17.616019 c -0.13501,0.0021 -0.26823,0.0078 -0.39945,0.01654 -1.57472,0.104597 -2.87053,0.678965 -3.69797,1.717724 -1.10327,1.38505 -1.216,3.397602 -0.42581,5.596041 0.79018,2.198442 2.48601,4.541876 4.8984,6.463688 2.41242,1.921831 5.07601,3.051442 7.39542,3.330546 2.31941,0.279104 4.25531,-0.280603 5.35885,-1.666048 1.10326,-1.385053 1.216,-3.397185 0.42581,-5.595524 -0.0158,-0.0439 -0.0341,-0.08827 -0.0506,-0.132292 -2.05286,-0.456792 -4.07337,-1.508959 -4.95009,-3.489192 -0.44456,-1.001995 -0.46302,-2.065461 -0.21136,-3.084567 -2.32807,-1.773617 -4.86225,-2.821173 -7.08173,-3.088183 -0.43491,-0.05232 -0.8564,-0.0753 -1.26143,-0.06873 z m -0.51108,3.600814 a 0.39692201,0.39692201 0 0 1 0.30386,0.255798 c 0.77077,2.128489 2.53564,3.742335 4.72426,4.320667 2.43949,0.644486 4.40833,2.445873 5.26738,4.81831 a 0.39692201,0.39692201 0 0 1 -0.23823,0.508496 0.39692201,0.39692201 0 0 1 -0.50798,-0.238228 c -0.77067,-2.128346 -2.53576,-3.742489 -4.72426,-4.320666 -2.43958,-0.644655 -4.40823,-2.445749 -5.26738,-4.818311 a 0.39692201,0.39692201 0 0 1 0.23772,-0.508496 0.39692201,0.39692201 0 0 1 0.20463,-0.01757 z" />
    <path
       id="path15-4"
       style="color:#000000;fill:#e0e0e0;fill-opacity:1;stroke-width:0.264702;-inkscape-stroke:none"
       class="bean"
       d="m 145.99248,24.384081 c -2.12248,1.514898 -4.59844,2.542001 -7.17114,2.993616 -1.16212,1.558987 -2.11872,3.576694 -2.67271,5.87251 -0.72385,2.999857 -0.62282,5.892481 0.10387,8.113717 0.72666,2.221206 2.05208,3.740073 3.77445,4.155818 1.72236,0.415758 3.59456,-0.332348 5.25446,-1.977657 1.65993,-1.64528 3.06907,-4.173135 3.79305,-7.172689 0.72394,-2.999554 0.62239,-5.891838 -0.10439,-8.1132 -0.40882,-1.24952 -1.00648,-2.276999 -1.75803,-3.010668 -0.37054,-0.361689 -0.77883,-0.651151 -1.21956,-0.861447 z m -1.28623,3.576526 a 0.39692201,0.39692201 0 0 1 0.17828,0.10232 0.39692201,0.39692201 0 0 1 0.002,0.561722 c -1.59543,1.605728 -2.30273,3.890024 -1.89136,6.115906 0.45844,2.48134 -0.32967,5.030475 -2.10839,6.820256 a 0.39692201,0.39692201 0 0 1 -0.56121,0.0021 0.39692201,0.39692201 0 0 1 -0.002,-0.561723 c 1.59555,-1.60585 2.30213,-3.889821 1.89084,-6.115906 -0.45854,-2.481155 0.32977,-5.031099 2.1084,-6.820772 a 0.39692201,0.39692201 0 0 1 0.38344,-0.10387 z" />
    <path
       id="path15-96"
       class="bean"
       style="color:#000000;fill:#e0e0e0;fill-opacity:1;stroke-width:0.264702;-inkscape-stroke:none"
       d="m 158.75766,15.08505 c -0.81693,0.0058 -1.57446,0.203235 -2.23761,0.604097 -1.5163,0.91622 -2.32129,2.764438 -2.34352,5.101497 -0.022,2.33706 0.75507,5.125435 2.35127,7.76645 1.59624,2.641049 3.70287,4.625501 5.78208,5.692677 2.07917,1.067176 4.08992,1.214033 5.60638,0.297656 1.51646,-0.91636 2.32053,-2.764959 2.34249,-5.102013 0.022,-2.337054 -0.75483,-5.125016 -2.35077,-7.765936 -1.59596,-2.640899 -3.70321,-4.624954 -5.78257,-5.692159 -1.16965,-0.6003 -2.31749,-0.90968 -3.36775,-0.902269 z m 0.32814,3.639569 a 0.39692201,0.39692201 0 0 1 0.39634,0.39791 c -0.004,2.263573 1.10112,4.38432 2.95952,5.676656 2.07159,1.440744 3.30481,3.807034 3.30005,6.330363 a 0.39692201,0.39692201 0 0 1 -0.39738,0.396359 0.39692201,0.39692201 0 0 1 -0.39637,-0.39791 c 0.004,-2.263746 -1.10101,-4.384124 -2.9595,-5.676656 -2.07153,-1.440545 -3.30533,-3.807185 -3.30057,-6.330363 a 0.39692201,0.39692201 0 0 1 0.39791,-0.396359 z" />
    <path
       id="path15-2"
       class="bean"
       style="color:#000000;fill:#e0e0e0;fill-opacity:1;stroke-width:0.264702;-inkscape-stroke:none"
       d="m 92.489893,11.274383 c -0.801952,-0.155826 -1.583563,-0.112056 -2.312876,0.149784 -1.667513,0.598353 -2.822017,2.250939 -3.305859,4.537472 -0.483618,2.286581 -0.273165,5.173548 0.769384,8.078012 1.042581,2.904504 2.71529,5.26628 4.542472,6.723464 1.827142,1.457176 3.769169,1.998673 5.436863,1.400194 1.667703,-0.598457 2.821373,-2.2516 3.304953,-4.53818 0.48362,-2.286575 0.27332,-5.173087 -0.76899,-8.077408 -1.042339,-2.904302 -2.715732,-5.265811 -4.543056,-6.723053 -1.027879,-0.819698 -2.091897,-1.349905 -3.122891,-1.550285 z m -0.397902,3.632605 a 0.39692201,0.39692201 45 0 1 0.309848,0.468414 c -0.451444,2.218103 0.212578,4.515478 1.778793,6.149722 1.745855,1.821872 2.486901,4.385269 1.983357,6.857849 a 0.39692201,0.39692201 45 0 1 -0.467899,0.309971 0.39692201,0.39692201 45 0 1 -0.309875,-0.46842 c 0.451478,-2.218271 -0.212509,-4.515263 -1.778773,-6.149717 -1.745836,-1.821665 -2.487383,-4.38552 -1.98387,-6.857953 a 0.39692201,0.39692201 45 0 1 0.468419,-0.309866 z" />
    <path
       id="path15-3"
       class="bean"
       style="color:#000000;fill:#e0e0e0;fill-opacity:1;stroke-width:0.264702;-inkscape-stroke:none"
       d="m 149.43254,19.073203 c 0.19253,-0.79394 0.18474,-1.576737 -0.0433,-2.317317 -0.52106,-1.693259 -2.11881,-2.922521 -4.38069,-3.510976 -2.26192,-0.588231 -5.15551,-0.51073 -8.10484,0.397182 -2.94936,0.907942 -5.38555,2.4703 -6.92519,4.228555 -1.53964,1.758217 -2.16985,3.673294 -1.64868,5.366746 0.52115,1.693448 2.1195,2.92191 4.38144,3.510101 2.26192,0.58823 5.15505,0.510862 8.10422,-0.396821 2.94915,-0.907707 5.3851,-2.470763 6.92481,-4.229156 0.86609,-0.989107 1.44465,-2.027623 1.69222,-3.048314 z m -3.61047,-0.564492 a 0.39692201,0.39692201 0 0 1 -0.48216,0.287984 c -2.19501,-0.552944 -4.52048,0.0048 -6.225,1.494177 -1.90021,1.660249 -4.49497,2.28266 -6.94179,1.665971 a 0.39692201,0.39692201 0 0 1 -0.28813,-0.481655 0.39692201,0.39692201 0 0 1 0.48217,-0.288014 c 2.19517,0.552986 4.52026,-0.0047 6.225,-1.494157 1.9,-1.660239 4.49524,-2.283128 6.94191,-1.666475 a 0.39692201,0.39692201 0 0 1 0.288,0.482169 z" />
  </g>
</svg>
