<?xml version="1.0" encoding="UTF-8" standalone="no"?>
<svg
   width="64"
   height="64"
   viewBox="0 0 16.933 16.933"
   version="1.1"
   id="svg4"
   xmlns="http://www.w3.org/2000/svg"
   xmlns:svg="http://www.w3.org/2000/svg">
  <defs
     id="defs4" />
  <path
     id="path1"
     style="stroke:none;stroke-width:0.513;fill:#000000;fill-opacity:1;stroke-opacity:1"
     d="M 13.245442 2.4840372 C 12.109347 2.4867391 10.812873 2.8024724 9.5537507 3.4477837 C 8.3694374 4.0547546 7.4030166 4.8585955 6.7384741 5.7178847 C 5.8082536 4.0293348 4.4401647 2.9547154 3.1325637 2.9718531 C 2.9477645 2.9742751 2.7641911 2.9984053 2.583254 3.045749 C 0.65225786 3.549748 -0.25011906 6.496069 0.5668793 9.6250628 C 1.3848777 12.753057 3.614776 14.880065 5.544772 14.375067 L 5.544772 14.3761 C 6.8540215 14.033703 7.6897292 12.56844 7.8376102 10.685442 C 9.2094929 11.047553 11.067237 10.794512 12.851159 9.8808561 C 15.728153 8.4058591 17.323143 5.7709894 16.413145 3.9939928 L 16.414179 3.9939928 C 15.902304 2.9949948 14.706138 2.4805633 13.245442 2.4840372 z M 14.285152 4.8027131 A 0.25650001 0.25650001 0 0 1 14.540945 5.0605734 A 0.25650001 0.25650001 0 0 1 14.283085 5.3163667 C 13.138372 5.3137744 12.065682 5.8726509 11.411999 6.81237 C 10.662926 7.8892134 9.4330608 8.5318148 8.1213082 8.529544 A 0.25650001 0.25650001 0 0 1 7.8649982 8.2716837 A 0.25650001 0.25650001 0 0 1 8.1228585 8.0153736 C 9.2669123 8.0173542 10.339086 7.4585466 10.992394 6.5193704 C 11.741897 5.4419056 12.972645 4.7997407 14.285152 4.8027131 z M 3.3413323 5.0946792 A 0.25650001 0.25650001 0 0 1 3.4415826 5.103464 A 0.25650001 0.25650001 0 0 1 3.6172791 5.4217845 C 3.2999378 6.5207466 3.5413985 7.7046226 4.2637385 8.5915545 C 5.0925015 9.6086808 5.3681583 10.968078 5.0037304 12.22847 A 0.25650001 0.25650001 0 0 1 4.6874769 12.404167 A 0.25650001 0.25650001 0 0 1 4.5117805 12.085846 C 4.8296073 10.986626 4.5881063 9.8010708 3.865321 8.9140091 C 3.0370982 7.8970679 2.7594037 6.5392118 3.1232621 5.2791604 A 0.25650001 0.25650001 0 0 1 3.3413323 5.0946792 z " />
</svg>
