<?xml version="1.0" encoding="UTF-8" standalone="no"?>
<svg
   width="119.3102"
   height="86.621651"
   viewBox="0 0 31.56687 22.918194"
   version="1.1"
   id="svg4"
   xmlns="http://www.w3.org/2000/svg"
   xmlns:svg="http://www.w3.org/2000/svg">
  <path
     d="M 5.5857256,0.55400669 C 5.2255183,0.55868973 4.867777,0.60598306 4.5150123,0.6981806 0.75218762,1.6816175 -1.0061457,7.4211688 0.58819682,13.517303 2.1824731,19.613167 6.5247133,23.756865 10.287154,22.773918 12.745439,22.131263 14.34755,19.458458 14.718838,15.982737 12.962515,15.53219 11.548583,14.585289 10.804426,13.132837 9.8384932,11.247511 10.218298,8.944062 11.521165,6.7912295 11.778462,6.3660763 12.073221,5.9453918 12.400681,5.5324171 10.595689,2.4574928 8.0369016,0.52206682 5.5857256,0.55400669 Z M 5.9531399,4.800176 a 0.39686718,0.39686718 0 0 1 0.2056672,0.00413 0.39686718,0.39686718 0 0 1 0.2707798,0.4914327 c -0.6283916,2.1744565 -0.1502566,4.5176499 1.2794813,6.2723593 1.593699,1.955714 2.126695,4.570103 1.426243,6.993752 A 0.39686718,0.39686718 0 0 1 8.6438782,18.833143 0.39686718,0.39686718 0 0 1 8.3725825,18.341711 C 9.0009632,16.167429 8.5228232,13.824367 7.0930985,12.069865 5.4994096,10.11395 4.9664117,7.4994046 5.6668558,5.0755991 A 0.39686718,0.39686718 0 0 1 5.9531399,4.800168 Z"
     style="fill:#ffa600;fill-opacity:1;stroke-width:0.264578" />
  <path
     style="fill:#ffa600;fill-opacity:1;stroke-width:0;stroke-dasharray:none"
     d="M 25.292663,4.6248164e-5 C 23.152585,0.00610525 20.682653,0.60415483 18.280826,1.835041 c -2.744955,1.4067355 -4.871213,3.3685584 -6.080648,5.3670069 -1.209426,1.9984538 -1.496869,3.9929291 -0.68935,5.5690601 0.807503,1.576095 2.59449,2.507515 4.923119,2.692807 2.328626,0.18529 5.162924,-0.394927 7.907888,-1.801406 2.744929,-1.406458 4.870722,-3.367937 6.08013,-5.3664914 1.209399,-1.9985517 1.496496,-3.9935898 0.68935,-5.5695758 h 5.29e-4 C 30.304219,1.1504663 28.517452,0.21901904 26.188728,0.03363445 25.897636,0.0104574 25.598401,-8.1892184e-4 25.292676,4.6248164e-5 Z M 27.315238,4.2234777 a 0.3969142,0.3969142 0 0 1 0.396867,0.3979017 0.3969142,0.3969142 0 0 1 -0.397902,0.3963512 c -2.263701,-0.00434 -4.384554,1.1010128 -5.67706,2.9594492 -1.440517,2.0714962 -3.80711,3.3053772 -6.330238,3.3005092 a 0.3969142,0.3969142 0 0 1 -0.395833,-0.397899 0.3969142,0.3969142 0 0 1 0.397899,-0.396351 c 2.26353,0.0044 4.384237,-1.1010875 5.676545,-2.9594524 1.440718,-2.0715435 3.806443,-3.3053375 6.329722,-3.3005089 z" />
</svg>
