<svg xmlns="http://www.w3.org/2000/svg" xmlns:xlink="http://www.w3.org/1999/xlink" width="1236.184" height="1190.211" viewBox="0 0 1236.184 1190.211">
  <defs>
    <clipPath id="clip-path">
      <rect id="Rectangle_12" data-name="Rectangle 12" width="998.601" height="926.997" fill="#fff800"/>
    </clipPath>
  </defs>
  <g id="Logo-kruh" transform="translate(0 308.585) rotate(-18)">
    <g id="Group_29" data-name="Group 29" transform="translate(0 0)" clip-path="url(#clip-path)">
      <path id="Path_133" data-name="Path 133" d="M1822.725,773.87l16.1,3.653,40.744-179.606-47.058-10.675-16.662,73.451c.161.868.327,1.733.482,2.6a463.1,463.1,0,0,1,6.392,110.576" transform="translate(-865.58 -279.904)" fill="#fff800"/>
      <path id="Path_134" data-name="Path 134" d="M1827.973,1001.146a30.518,30.518,0,0,0-10.323-9.317,473.862,473.862,0,0,1-8.418,50.947,30.4,30.4,0,0,0,10.111-3.591q10.648-6.032,13.139-17.017t-4.509-21.022" transform="translate(-862.369 -476.193)" fill="#fff800"/>
      <path id="Path_135" data-name="Path 135" d="M178.021,280.759l-44.3-10.05L107.843,384.783a467.215,467.215,0,0,1,70.178-104.024" transform="translate(-57.984 -99.18)" fill="#fff800"/>
      <path id="Path_136" data-name="Path 136" d="M10.658,0A97.807,97.807,0,0,0,30.945,115.769a162,162,0,0,0,3.39-21.788C37.466,58.1,28.627,25.427,10.658,0" transform="translate(354.736 433.823) rotate(-9)" fill="#fff800"/>
      <path id="Path_137" data-name="Path 137" d="M0,2.566c6.28,32.4,34.524,60.01,77.794,63.786a108.584,108.584,0,0,0,36.2-2.61A98.541,98.541,0,0,0,87.421,24.887C72.388,23.306,61.336,15.689,55.3,5.739A97.994,97.994,0,0,0,0,2.566" transform="translate(421.083 369.145) rotate(-9)" fill="#fff800"/>
      <path id="Path_138" data-name="Path 138" d="M501.136,670.424c.227.077.45.159.675.238a191.2,191.2,0,0,1,23.616-32.982c1.271-1.427,2.567-2.826,3.874-4.212a147.237,147.237,0,0,0-13.774-5.46A135.522,135.522,0,0,0,459.316,621a254.661,254.661,0,0,0-31.043,61.642c21.362-16.987,48.1-20.623,72.863-12.219" transform="translate(-207.779 -301.021)" fill="#fff800"/>
      <path id="Path_139" data-name="Path 139" d="M492.288,1052.9c-1.227-2.486-2.388-4.995-3.5-7.518a76.934,76.934,0,0,1-50.751-.066,81.288,81.288,0,0,1-18.7-9.12,256.36,256.36,0,0,0,16.992,44.313q3.089,6.261,6.491,12.308c24.923,4.809,49.09,2.423,70.738-6.1a193.315,193.315,0,0,1-21.265-33.815" transform="translate(-203.441 -502.719)" fill="#fff800"/>
      <path id="Path_140" data-name="Path 140" d="M1159.263,591.07l-68.9-12.677q-4.151-.769-8.249-1.281a192.192,192.192,0,0,1,56.364,48.543l28.158,5.081-3.769,11.109a123.671,123.671,0,0,1-5.335,13.26q1.148,2.187,2.247,4.408a192.66,192.66,0,0,1,19.677,95.756,261.459,261.459,0,0,1,9.119-33.191l29.177-86q-.986-2.093-2.009-4.176a255.484,255.484,0,0,0-32.578-50.273c-3.316,7.291-10.047,12.1-23.9,9.439" transform="translate(-524.995 -279.99)" fill="#fff800"/>
      <path id="Path_141" data-name="Path 141" d="M1028.229,473.284c6.551-14.141,16.627-24.81,29.464-30.223a257.882,257.882,0,0,0-35.307-14.969q-9.318-3.16-18.759-5.59a86.671,86.671,0,0,0-17.245,24.76Z" transform="translate(-478.549 -204.981)" fill="#fff800"/>
      <path id="Path_142" data-name="Path 142" d="M1212.509,1171.562c-6.876-16.215-19.959-32.924-43.8-45.368q-5.071,6.83-10.768,13.234a192.862,192.862,0,0,1-20.256,19.659c32.214,12.2,35.879,37.807,34.669,52.257a254.671,254.671,0,0,0,32.24-30.439q4.081-4.588,7.919-9.343" transform="translate(-551.952 -546.381)" fill="#fff800"/>
      <path id="Path_143" data-name="Path 143" d="M984.5,1253.083a191.642,191.642,0,0,1-48.453,11.568c4.4,19.922,18.073,37.8,39.934,50.823l6.385,3.855a256.166,256.166,0,0,0,46.517-17.6q4.321-2.131,8.539-4.411l-33.751-20.31c-11.311-6.78-17.573-14.975-19.172-23.924" transform="translate(-454.129 -607.941)" fill="#fff800"/>
      <path id="Path_144" data-name="Path 144" d="M637.148,754.117a109.087,109.087,0,0,1,22.847-41.244A125.1,125.1,0,0,0,608.3,663.6a178.978,178.978,0,0,0-26.13,37.326c33.983,16.063,54.067,54.626,38.88,105.69-8.361,28.114-23.446,47.244-41.476,58,1.144,2.346,2.332,4.678,3.583,6.988a182.548,182.548,0,0,0,23.018,33.179c20.449-11.5,37.8-28.925,50.29-51.126a109.7,109.7,0,0,1-19.312-99.544" transform="translate(-281.182 -321.953)" fill="#fff800"/>
      <path id="Path_145" data-name="Path 145" d="M1080.449,766.851a110.322,110.322,0,0,1,13.4,38.32,88.549,88.549,0,0,0,43.608-20.757c-5.32,17.888-6.523,27.544-7.325,33.981l36.152,10.752a179.778,179.778,0,0,0-20.321-91.114c-15.793,25.326-39.6,32.587-65.517,28.82" transform="translate(-524.186 -358.061)" fill="#fff800"/>
      <path id="Path_146" data-name="Path 146" d="M894.582,621.742a72.906,72.906,0,0,0-1.908,8.1,109.989,109.989,0,0,1,50.384,11.445,34.852,34.852,0,0,1,1.349-7.506c6.536-21.977,25.364-29.172,46.722-26.158l31.758,4.492A179.625,179.625,0,0,0,955.3,569.161c-28.476,4.524-51.365,21.126-60.72,52.581" transform="translate(-433.086 -276.133)" fill="#fff800"/>
      <path id="Path_147" data-name="Path 147" d="M947.914,1144.709a72.591,72.591,0,0,0-2.971,26.336,180.36,180.36,0,0,0,50.236-14.867c.14-.574.289-1.148.461-1.726,4.18-14.053,19.508-24.01,38.7-22.721a178.972,178.972,0,0,0,33.223-35.686q-4.378-1.61-9.144-3.031c-48.042-14.288-98.037,9.785-110.5,51.695" transform="translate(-458.348 -528.277)" fill="#fff800"/>
      <path id="Path_148" data-name="Path 148" d="M1254.014,1253.941l32.592-2.946a89.28,89.28,0,0,0-3.9-29.23q-1.585,2.095-3.211,4.166a266.786,266.786,0,0,1-25.486,28.01" transform="translate(-608.392 -592.748)" fill="#fff800"/>
      <path id="Path_149" data-name="Path 149" d="M326.98,858.146c-19.172-19.671-27.905-50.555-17.392-88.943a118.178,118.178,0,0,1,12.258-29.4q2.1-11.428,5.2-22.759a267.4,267.4,0,0,1,23.43-58.053c-42.751,12.353-76.728,47.294-90.257,96.69-20.7,75.6,16.4,146.023,90.456,166.3q1.86.51,3.714.964-.9-1.527-1.775-3.066a267.022,267.022,0,0,1-25.632-61.738" transform="translate(-123.487 -319.715)" fill="#fff800"/>
      <path id="Path_150" data-name="Path 150" d="M1071.92,404.748a67.029,67.029,0,0,1,24.886,2.339c31.38,8.595,43.829,27.07,43.2,47.02a266.307,266.307,0,0,1,39.551,50.51l5.552-20.272c13.239-48.342-4.01-98.4-78.068-118.683-36.649-10.037-72.458-3.229-97.195,16.819q5.93,1.344,11.831,2.955a268.108,268.108,0,0,1,50.239,19.312" transform="translate(-489.934 -175.18)" fill="#fff800"/>
      <path id="Path_151" data-name="Path 151" d="M1076.117,1423.7c6.082-31.414-7.583-60.345-40.788-80.941q-6.912,4.518-14.137,8.639a268.988,268.988,0,0,1-37.02,17.53l18.8,9.87c19.3,10.263,27.378,25.189,23.152,40.618-4.789,17.485-23.928,28.83-51.185,21.364-32.908-9.013-47.163-32.5-45.433-57.37q-2.657.408-5.328.771a265.248,265.248,0,0,1-42.472,2.247c-1.37,25.889,12.182,65.145,57.858,86.716a356.142,356.142,0,0,0,126.3-43.373q5.186-2.956,10.25-6.072" transform="translate(-427.722 -651.45)" fill="#fff800"/>
      <path id="Path_152" data-name="Path 152" d="M1419.225,735.128l-13.371-3.662-3.147,11.491q1.629,8.231,2.75,16.6,1.291,9.65,1.868,19.309l33.869,9.276-37.183,135.769c-9.757,35.628.747,63.833,26.723,79.678a353.668,353.668,0,0,0,26.49-42.9c-5.925-7.561-6.471-17.685-2.9-30.733l35.211-128.57,8.392,2.3a356.671,356.671,0,0,0-21.019-129.8l-9.206,33.614c-5.916,21.6-21.737,34.958-48.479,27.634" transform="translate(-679.421 -326.938)" fill="#fff800"/>
      <path id="Path_153" data-name="Path 153" d="M1366.054,729.936q-.682-1.91-1.4-3.812v3.812Z" transform="translate(-662.071 -352.284)" fill="#fff800"/>
      <path id="Path_154" data-name="Path 154" d="M1705.941,1119.322q-3.676,10.644,2.183,21.388t18.4,15.078c.645.222,1.287.422,1.925.611a462.341,462.341,0,0,0,14.951-53.466,31.638,31.638,0,0,0-22.543.908q-11.243,4.841-14.92,15.48" transform="translate(-811.569 -529.3)" fill="#fff800"/>
      <path id="Path_155" data-name="Path 155" d="M1769.75,991a450.427,450.427,0,0,0,6.294-79.255L1750.912,984.5Z" transform="translate(-834.075 -437.34)" fill="#fff800"/>
      <path id="Path_156" data-name="Path 156" d="M108.89,499.582l41.279-119.492c18.156-52.556,51.628-64.3,90.8-50.77a152.687,152.687,0,0,1,17.453,7.322q1.979-1.77,3.984-3.508l15.506-44.886a92.828,92.828,0,0,0-14.856-6.8c-24.3-8.393-57.128-9.744-87.156,20.951l8.016-23.2q-11.555,11.155-22.372,23.166A451.729,451.729,0,0,0,81.484,427.9l-19.2,55.582Z" transform="translate(-35.88 -101.888)" fill="#fff800"/>
      <path id="Path_157" data-name="Path 157" d="M1008.862,1588.021c52.942,18.289,92.3-4.309,108.24-33.5a362.091,362.091,0,0,1-109.694,32.983c.485.172.963.349,1.454.519" transform="translate(-488.75 -754.185)" fill="#fff800"/>
      <path id="Path_158" data-name="Path 158" d="M1625.549,736.064l-33.585-11.6a361.406,361.406,0,0,1,12.985,71.234Z" transform="translate(-772.35 -351.479)" fill="#fff800"/>
      <path id="Path_159" data-name="Path 159" d="M1648.218,955.432l14.559-42.145-45.128-15.59a359.813,359.813,0,0,1-1.572,46.631Z" transform="translate(-784.049 -435.525)" fill="#fff800"/>
      <path id="Path_160" data-name="Path 160" d="M1472.414,1333.952c15.866,5.481,28.794,6.617,33.274,6.5l13.7-39.667a99.7,99.7,0,0,1-19.029-4.353,58.693,58.693,0,0,1-12.346-5.746,359.34,359.34,0,0,1-27.327,38.346,96.205,96.205,0,0,0,11.726,4.919" transform="translate(-708.661 -626.186)" fill="#fff800"/>
    </g>
  </g>
</svg>
