<svg xmlns="http://www.w3.org/2000/svg" xmlns:xlink="http://www.w3.org/1999/xlink" width="1794.191" height="844.314" viewBox="0 0 1794.191 844.314">
  <defs>
    <clipPath id="clip-path">
      <rect id="Rectangle_10" data-name="Rectangle 10" width="1505.929" height="716.405" fill="none"/>
    </clipPath>
  </defs>
  <g id="Logo_-_oficial" data-name="Logo - oficial" transform="translate(-566.677 -354.371)">
    <g id="Group_23" data-name="Group 23" transform="matrix(0.998, -0.07, 0.07, 0.998, 678.843, 484.025)">
      <g id="Group_22" data-name="Group 22" clip-path="url(#clip-path)">
        <path id="Path_119" data-name="Path 119" d="M68.04,121.158,76.512,0A957.424,957.424,0,0,0,2.143,85.738L0,116.4Z" transform="translate(36.799 333.65)"/>
        <path id="Path_120" data-name="Path 120" d="M177.665,61.037a787.271,787.271,0,0,1,67.282-49.129A189.867,189.867,0,0,0,191.516.5C87.288-6.792,7.941,66.942.552,172.618c-1.939,27.728,1.278,53.933,8.922,77.662a777.739,777.739,0,0,1,61.765-84.524C80.459,97.5,126.4,61.771,177.665,61.037" transform="translate(129.316 335.114)"/>
        <path id="Path_121" data-name="Path 121" d="M150.486.443C75.21-4.821,11.895,37.3,0,103.386l64.08,19.755c7.177-40.229,36.034-68.033,83.806-64.693,36.308,2.539,57.329,17.405,66.157,37.5q34.04-3.685,68.482-4.372C270.237,43.71,230.209,6.017,150.486.443" transform="translate(502.111 128.993)"/>
        <path id="Path_122" data-name="Path 122" d="M76.6,13.706Q64.916,1.466,46.049.139,27.739-1.141,14.457,9.36T.092,35.4q-1.086,15.539,10.6,27.784t30,13.528q18.858,1.319,32.144-9.182T87.207,41.49q1.086-15.529-10.6-27.785" transform="translate(1418.63 440.665)"/>
        <path id="Path_123" data-name="Path 123" d="M0,122.953l66.583,4.656,4.626-66.151Q41.191,29.195,8.6,0Z" transform="translate(1433.326 287.78)"/>
        <path id="Path_124" data-name="Path 124" d="M80.292,168.068l58.442,17.179c18.375,5.507,31.027,14.851,37.3,26.613q36.323,12.149,71.456,27.895c.237-1.808.425-3.612.55-5.406,3.594-51.39-27.018-92.081-89.028-110.236l-55.6-16.253C77.037,100.2,65.072,84.086,66.54,63.1c1.671-23.885,26.4-44.7,61.143-42.276,55.011,3.848,66.7,44.669,68.332,62.968L257.662,65.55a115.717,115.717,0,0,0-3.135-13.866A955.53,955.53,0,0,0,30.288,0C13.074,17.466,1.979,39.8.267,64.279c-3.442,49.22,26.549,88.412,80.025,103.789" transform="translate(874.482 48.946)"/>
        <path id="Path_125" data-name="Path 125" d="M164.607,181.16l4.3-61.525-75.276-5.263L101.326,4.353,39.079,0,35.131,56.457C33.478,80.1,22.5,98.68,0,104.541a779.608,779.608,0,0,1,109.514,72.767Z" transform="translate(1178.886 212.507)"/>
        <path id="Path_126" data-name="Path 126" d="M143.449,345.873c103.467,14.542,187.763-53.476,202.608-159.1C357.389,106.149,323.215,35.15,259.82,0Q225.9,18.432,193.742,40.314c53.928,11.109,94.075,60.364,83.338,136.767C265.769,257.555,209.414,293.6,151.931,285.519,96.384,277.713,53.208,230.584,60.574,154.8A766.5,766.5,0,0,0,0,228.991c20.432,61.68,72.163,106.864,143.449,116.882" transform="translate(173.596 324.998)"/>
        <path id="Path_127" data-name="Path 127" d="M215.94,41.649l-95.326.524C59.766,42.414,9.651,70.542.967,132.335c-7.675,54.607,30.725,109.827,101.14,119.724,61.793,8.684,100.927-19.521,119.449-41.829-3.534,25.149-3.2,38.385-2.972,47.208l66.1,9.291c-.224-8.824-.573-27.191,3.669-57.369L312.692,36.2a151.9,151.9,0,0,0,.99-35.125q-33.8-1.78-67.434-.6a68.034,68.034,0,0,1-.088,19.051c-1.716,12.216-8.978,22.185-30.22,22.131m17.7,66.966c-10.6,75.445-58.887,95.769-114.214,87.993-34.49-4.848-52.611-32.307-48.975-58.173,4.341-30.9,28.22-44.392,57.567-44.664l107.843-.963Z" transform="translate(527.227 231.637)"/>
        <path id="Path_128" data-name="Path 128" d="M135.488,75.978C86.628,69.111,63.365,36.532,64.1,0L0,12.972C.195,53.3,31.849,120.029,126.693,133.357c75.841,10.658,123.064-29.4,137.56-72.686Q233.37,44.008,201.232,30.283a41.617,41.617,0,0,1-.363,7.991c-3.432,24.429-27.3,43.056-65.381,37.7" transform="translate(903.836 263.372)"/>
        <path id="Path_129" data-name="Path 129" d="M8.583,0,0,61.074l66.1,9.291L39.443,260.053c-8.785,62.51,23.53,103.687,82.448,111.968,22.992,3.231,40.843,1.345,46.893,0l8.079-57.482c-5.95.631-18.366.351-26.988-.86-35.208-4.948-45.919-22.574-41.476-54.19L133.634,79.927A769.91,769.91,0,0,0,28.818,2.813c-.519-.064-1.027-.114-1.554-.188Z" transform="translate(1176.399 342.601)"/>
        <path id="Path_130" data-name="Path 130" d="M68.2,179.944c0-76.911,38.456-107.385,95.777-107.385a212.922,212.922,0,0,1,29.75,2.176V2.177A128.416,128.416,0,0,0,171.237,0C135.684,0,92.149,13.062,66.753,66.753V5.806H0V303.828A970.334,970.334,0,0,1,68.2,216Z" transform="translate(0 149.937)"/>
        <path id="Path_131" data-name="Path 131" d="M66.746,0H0V117.189q34.5,26.322,66.746,55.826Z" transform="translate(1390.383 113.357)"/>
        <path id="Path_132" data-name="Path 132" d="M88,0C53.7,0,22.524,12.851,0,33.192a966.356,966.356,0,0,1,210.842,33.4C195.109,35.7,160.446,0,88,0" transform="translate(848.482 0)"/>
      </g>
    </g>
    <g id="Group_25" data-name="Group 25" transform="translate(568.89 355.887)">
      <path id="Path_51" data-name="Path 51" d="M357.207,160.883c-14.221,3.717-30.634-11.945-36.66-34.986s.619-44.735,14.841-48.452,30.634,11.943,36.66,34.985-.62,44.735-14.842,48.453" transform="translate(-129.178 7.597)" stroke="#fff800" stroke-width="3"/>
      <path id="Path_49" data-name="Path 49" d="M275.164,151.43c6.7,13.082-5.043,32.493-26.238,43.353s-43.811,9.062-50.514-4.021,5.042-32.491,26.237-43.353,43.812-9.061,50.516,4.021" transform="translate(32.906 -59.405)" stroke="#fff800" stroke-width="3"/>
      <path id="Path_116" data-name="Path 116" d="M275.164,151.43c6.7,13.082-5.043,32.493-26.238,43.353s-43.811,9.062-50.514-4.021,5.042-32.491,26.237-43.353,43.812-9.061,50.516,4.021" transform="translate(199.373 244.603)" stroke="#fff800" stroke-width="3"/>
      <path id="Path_117" data-name="Path 117" d="M78.637,11.122C85.341,24.2,73.594,43.614,52.4,54.475S8.589,63.537,1.885,50.454,6.927,17.963,28.122,7.1,71.934-1.96,78.637,11.122" transform="translate(41.203 514.98) rotate(42)" stroke="#fff800" stroke-width="3"/>
      <path id="Path_118" data-name="Path 118" d="M78.637,11.122C85.341,24.2,73.594,43.614,52.4,54.475S8.589,63.537,1.885,50.454,6.927,17.963,28.122,7.1,71.934-1.96,78.637,11.122" transform="translate(76.573 599.491) rotate(1)" stroke="#fff800" stroke-width="3"/>
      <path id="Path_108" data-name="Path 108" d="M275.164,151.43c6.7,13.082-5.043,32.493-26.238,43.353s-43.811,9.062-50.514-4.021,5.042-32.491,26.237-43.353,43.812-9.061,50.516,4.021" transform="translate(1131.234 -140.308)" stroke="#fff800" stroke-width="3"/>
      <path id="Path_109" data-name="Path 109" d="M78.637,11.122C85.341,24.2,73.594,43.614,52.4,54.475S8.589,63.537,1.885,50.454,6.927,17.963,28.122,7.1,71.934-1.96,78.637,11.122" transform="matrix(0.719, 0.695, -0.695, 0.719, 1400.708, 11.462)" stroke="#fff800" stroke-width="3"/>
      <path id="Path_110" data-name="Path 110" d="M78.637,11.122C85.341,24.2,73.594,43.614,52.4,54.475S8.589,63.537,1.885,50.454,6.927,17.963,28.122,7.1,71.934-1.96,78.637,11.122" transform="translate(1618.932 727.135) rotate(-24)" stroke="#fff800" stroke-width="3"/>
      <path id="Path_111" data-name="Path 111" d="M78.637,11.122C85.341,24.2,73.594,43.614,52.4,54.475S8.589,63.537,1.885,50.454,6.927,17.963,28.122,7.1,71.934-1.96,78.637,11.122" transform="matrix(0.695, -0.719, 0.719, 0.695, 1688.517, 720.837)" stroke="#fff800" stroke-width="3"/>
      <path id="Path_112" data-name="Path 112" d="M78.637,11.122C85.341,24.2,73.594,43.614,52.4,54.475S8.589,63.537,1.885,50.454,6.927,17.963,28.122,7.1,71.934-1.96,78.637,11.122" transform="matrix(-0.07, -0.998, 0.998, -0.07, 1728.926, 218.782)" stroke="#fff800" stroke-width="3"/>
      <path id="Path_47" data-name="Path 47" d="M299.786,122.394c-9.16,11.5-31.686,8.787-50.313-6.052s-26.3-36.191-17.142-47.688,31.686-8.787,50.313,6.053,26.3,36.19,17.142,47.687" transform="translate(-175.277 80.947)" stroke="#fff800" stroke-width="3"/>
      <path id="Path_246" data-name="Path 246" d="M19.3,13.279a27.572,27.572,0,0,0,5.55,24.978A27.568,27.568,0,0,1,30.4,63.233" transform="matrix(0.819, -0.574, 0.574, 0.819, 48.09, 159.269)" fill="none" stroke="#fff800" stroke-linecap="round" stroke-miterlimit="10" stroke-width="3"/>
      <path id="Path_247" data-name="Path 247" d="M19.3,13.279a27.572,27.572,0,0,0,5.55,24.978A27.568,27.568,0,0,1,30.4,63.233" transform="translate(192.941 88.39) rotate(1)" fill="none" stroke="#fff800" stroke-linecap="round" stroke-miterlimit="10" stroke-width="3"/>
      <path id="Path_248" data-name="Path 248" d="M19.3,13.279a27.572,27.572,0,0,0,5.55,24.978A27.568,27.568,0,0,1,30.4,63.233" transform="matrix(0.259, 0.966, -0.966, 0.259, 300.214, 77.785)" fill="none" stroke="#fff800" stroke-linecap="round" stroke-miterlimit="10" stroke-width="3"/>
      <path id="Path_254" data-name="Path 254" d="M19.3,13.279a27.572,27.572,0,0,0,5.55,24.978A27.568,27.568,0,0,1,30.4,63.233" transform="matrix(-0.574, 0.819, -0.819, -0.574, 1453.874, 63.163)" fill="none" stroke="#fff800" stroke-linecap="round" stroke-miterlimit="10" stroke-width="3"/>
      <path id="Path_255" data-name="Path 255" d="M19.3,13.279a27.572,27.572,0,0,0,5.55,24.978A27.568,27.568,0,0,1,30.4,63.233" transform="matrix(0.326, 0.946, -0.946, 0.326, 1396.103, -5.164)" fill="none" stroke="#fff800" stroke-linecap="round" stroke-miterlimit="10" stroke-width="3"/>
      <path id="Path_256" data-name="Path 256" d="M19.3,13.279a27.572,27.572,0,0,0,5.55,24.978A27.568,27.568,0,0,1,30.4,63.233" transform="matrix(-0.966, 0.259, -0.259, -0.966, 1790.736, 206.992)" fill="none" stroke="#fff800" stroke-linecap="round" stroke-miterlimit="10" stroke-width="3"/>
      <path id="Path_257" data-name="Path 257" d="M19.3,13.279a27.572,27.572,0,0,0,5.55,24.978A27.568,27.568,0,0,1,30.4,63.233" transform="matrix(-0.848, -0.53, 0.53, -0.848, 1739.434, 758.875)" fill="none" stroke="#fff800" stroke-linecap="round" stroke-miterlimit="10" stroke-width="3"/>
      <path id="Path_258" data-name="Path 258" d="M19.3,13.279a27.572,27.572,0,0,0,5.55,24.978A27.568,27.568,0,0,1,30.4,63.233" transform="translate(1652.638 781.755) rotate(-127)" fill="none" stroke="#fff800" stroke-linecap="round" stroke-miterlimit="10" stroke-width="3"/>
      <g id="Group_55" data-name="Group 55">
        <path id="Path_114" data-name="Path 114" d="M78.637,11.122C85.341,24.2,73.594,43.614,52.4,54.475S8.589,63.537,1.885,50.454,6.927,17.963,28.122,7.1,71.934-1.96,78.637,11.122" transform="translate(509.994 836.078) rotate(-129)" stroke="#fff800" stroke-width="3"/>
        <path id="Path_253" data-name="Path 253" d="M19.3,13.279a27.572,27.572,0,0,0,5.55,24.978A27.568,27.568,0,0,1,30.4,63.233" transform="translate(553.208 794.893) rotate(135)" fill="none" stroke="#fff800" stroke-linecap="round" stroke-miterlimit="10" stroke-width="3"/>
      </g>
      <g id="Group_56" data-name="Group 56">
        <path id="Path_115" data-name="Path 115" d="M78.637,11.122C85.341,24.2,73.594,43.614,52.4,54.475S8.589,63.537,1.885,50.454,6.927,17.963,28.122,7.1,71.934-1.96,78.637,11.122" transform="translate(441.777 834.743) rotate(-94)" stroke="#fff800" stroke-width="3"/>
        <path id="Path_252" data-name="Path 252" d="M19.3,13.279a27.572,27.572,0,0,0,5.55,24.978A27.568,27.568,0,0,1,30.4,63.233" transform="matrix(-0.966, 0.259, -0.259, -0.966, 503.587, 822.954)" fill="none" stroke="#fff800" stroke-linecap="round" stroke-miterlimit="10" stroke-width="3"/>
      </g>
      <path id="Path_249" data-name="Path 249" d="M19.3,13.279a27.572,27.572,0,0,0,5.55,24.978A27.568,27.568,0,0,1,30.4,63.233" transform="matrix(0.259, 0.966, -0.966, 0.259, 466.681, 381.794)" fill="none" stroke="#fff800" stroke-linecap="round" stroke-miterlimit="10" stroke-width="3"/>
      <path id="Path_250" data-name="Path 250" d="M19.3,13.279a27.572,27.572,0,0,0,5.55,24.978A27.568,27.568,0,0,1,30.4,63.233" transform="translate(96.077 562.407) rotate(120)" fill="none" stroke="#fff800" stroke-linecap="round" stroke-miterlimit="10" stroke-width="3"/>
      <path id="Path_251" data-name="Path 251" d="M19.3,13.279a27.572,27.572,0,0,0,5.55,24.978A27.568,27.568,0,0,1,30.4,63.233" transform="matrix(0.259, 0.966, -0.966, 0.259, 146.811, 597.072)" fill="none" stroke="#fff800" stroke-linecap="round" stroke-miterlimit="10" stroke-width="3"/>
    </g>
  </g>
</svg>
