<?xml version="1.0" encoding="UTF-8" standalone="no"?>
<svg
   width="1236.184"
   height="1190.211"
   viewBox="0 0 1236.184 1190.211"
   version="1.1"
   id="svg1"
   xmlns="http://www.w3.org/2000/svg"
   xmlns:svg="http://www.w3.org/2000/svg">
  <g
     id="round_g6"
     >
    <path
       id="Path_136"
       data-name="Path 136"
       d="m 480.92901,606.7171 a 97.807,97.807 0 0 0 70.63387,93.94083 162,162 0 0 0 -6.87103,-20.95228 C 531.19196,646.314 508.48312,621.21497 480.92901,606.7171"
       clip-path="none" />
    <path
       id="Path_137"
       data-name="Path 137"
       d="m 515.71075,531.82727 c 20.30481,26.01755 58.00508,37.79574 98.2732,21.51601 a 108.584,108.584 0 0 0 31.06952,-18.75999 98.541,98.541 0 0 0 -41.31652,-22.55616 c -14.11226,5.41615 -27.41771,3.64686 -37.31303,-2.47837 a 97.994,97.994 0 0 0 -50.71317,22.27851"
       clip-path="none" />
  </g>
  <g
     id="round_g4"
     >
    <path
       id="Path_138"
       data-name="Path 138"
       d="m 393.15089,569.25583 c 0.23968,0.003 0.47711,0.0122 0.71551,0.0178 a 191.2,191.2 0 0 1 12.26815,-38.66549 c 0.76783,-1.74992 1.56808,-3.48094 2.38282,-5.20299 a 147.237,147.237 0 0 0 -14.78709,-0.93636 135.522,135.522 0 0 0 -55.62543,10.70515 254.661,254.661 0 0 0 -10.47522,68.21784 c 15.0672,-22.75682 39.37296,-34.47736 65.52095,-34.13687"
       clip-path="none" />
    <path
       id="Path_139"
       data-name="Path 139"
       d="m 444.72509,742.5796 c -1.93516,-1.98516 -3.81466,-4.0126 -5.65189,-6.06849 a 76.934,76.934 0 0 1 -48.28746,15.62016 81.288,81.288 0 0 1 -20.60299,-2.89502 256.36,256.36 0 0 0 29.85382,36.89335 q 4.87257,5.00001 9.97669,9.69977 c 25.18924,-3.128 47.43611,-12.86523 65.39083,-27.66069 a 193.315,193.315 0 0 1 -30.67363,-25.58873"
       clip-path="none" />
    <path
       id="Path_140"
       data-name="Path 140"
       d="m 699.35372,408.44007 -69.4452,9.23473 q -4.18547,0.55137 -8.24112,1.33078 a 192.192,192.192 0 0 1 68.60596,28.7497 l 28.34997,-3.86898 -0.15167,11.72997 a 123.671,123.671 0 0 1 -0.97632,14.25962 q 1.76764,1.7252 3.49917,3.49789 a 192.66,192.66 45 0 1 48.30417,84.98884 261.459,261.459 0 0 1 -1.5839,-34.38444 l 1.17352,-90.80705 q -1.58452,-1.68587 -3.20113,-3.3508 a 255.484,255.484 0 0 0 -46.51873,-37.74531 c -0.90066,7.95886 -5.81616,14.61248 -19.81344,16.36253"
       clip-path="none" />
    <path
       id="Path_141"
       data-name="Path 141"
       d="m 605.68694,393.89585 c 1.86057,-15.47326 8.14651,-28.73373 18.68251,-37.84865 a 257.882,257.882 0 0 0 -38.20463,-3.32591 q -9.83843,-0.12591 -19.56827,0.48045 a 86.671,86.671 0 0 0 -8.74971,28.87716 z"
       clip-path="none" />
    <path
       id="Path_142"
       data-name="Path 142"
       d="m 821.41859,699.04413 c -11.55018,-13.29658 -29.15621,-25.14492 -55.67576,-29.61259 q -2.71222,8.06274 -6.15144,15.91378 a 192.862,192.862 0 0 1 -13.18964,24.95627 c 34.40734,1.64821 45.80596,24.86937 49.12048,38.98605 a 254.671,254.671 0 0 0 21.25589,-38.91192 q 2.46349,-5.62455 4.64427,-11.33283"
       clip-path="none" />
    <path
       id="Path_143"
       data-name="Path 143"
       d="m 703.77265,758.25785 a 191.642,191.642 0 0 1 -42.50684,25.97462 c 10.34089,17.58728 28.86929,30.36508 53.68467,35.99526 l 7.26375,1.69325 a 256.166,256.166 0 0 0 38.8016,-31.11313 q 3.451,-3.36197 6.758,-6.83381 l -38.37525,-8.88633 c -12.85253,-2.95287 -21.34044,-8.81171 -25.62657,-16.8286"
       clip-path="none" />
    <path
       id="Path_153"
       data-name="Path 153"
       d="m 786.2285,450.21069 q -1.23884,-1.60577 -2.50945,-3.19281 l 1.17797,3.62543 z"
       clip-path="none" />
  </g>
  <g
     id="round_g5"
     >
    <path
       id="Path_144"
       data-name="Path 144"
       d="m 472.08982,609.59784 a 109.087,109.087 0 0 1 8.98369,-46.28548 125.1,125.1 0 0 0 -64.39106,-30.88678 178.978,178.978 0 0 0 -13.31674,43.57375 c 37.28349,4.7755 68.30113,35.24479 69.63708,88.50259 0.73592,29.32169 -7.69927,52.17692 -21.52303,67.97806 1.81296,1.87767 3.66344,3.72842 5.56704,5.53878 a 182.548,182.548 0 0 0 32.1443,24.44215 c 15.89446,-17.25624 27.01162,-39.19015 32.02983,-64.16418 a 109.7,109.7 0 0 1 -49.12759,-88.70424"
       clip-path="none" />
    <path
       id="Path_145"
       data-name="Path 145"
       d="m 655.3606,525.47268 a 110.322,110.322 0 0 1 24.58569,32.30365 88.549,88.549 0 0 0 35.05941,-33.21669 c 0.46807,18.65647 2.30782,28.21162 3.53421,34.5814 l 37.70515,-0.94582 a 179.778,179.778 0 0 0 -47.48219,-80.37503 c -7.19388,28.96676 -27.59191,43.22915 -53.4045,47.65531"
       clip-path="none" />
    <path
       id="Path_146"
       data-name="Path 146"
       d="m 545.70783,494.66859 a 72.906,72.906 0 0 0 0.68842,8.29316 109.989,109.989 0 0 1 51.45473,-4.68467 34.852,34.852 0 0 1 -1.0365,-7.55549 c -0.57516,-22.92111 15.10795,-35.58213 36.35199,-39.31563 l 31.59176,-5.54162 a 179.625,179.625 0 0 0 -77.55257,-19.96615 c -25.68429,13.10215 -42.32273,35.96468 -41.49973,68.77102"
       clip-path="none" />
    <path
       id="Path_147"
       data-name="Path 147"
       d="m 656.0929,743.56246 a 72.591,72.591 0 0 0 5.31268,25.96511 180.36,180.36 0 0 0 43.18312,-29.66313 c -0.0442,-0.58917 -0.0799,-1.18112 -0.0949,-1.78398 -0.3672,-14.65689 11.13371,-28.86317 29.78471,-33.56791 a 178.972,178.972 0 0 0 20.56937,-44.20588 q -4.66124,-0.17832 -9.63309,-0.057 c -50.10589,1.2571 -90.21499,39.60119 -89.11711,83.31124"
       clip-path="none" />
  </g>
  <g
     id="round_g3"
     >
    <path
       id="Path_148"
       data-name="Path 148"
       d="m 818.34287,737.90875 30.08647,-12.8733 a 89.28,89.28 0 0 0 -12.74169,-26.59421 q -0.86003,2.48225 -1.76647,4.95435 a 266.786,266.786 45 0 1 -15.58306,34.5147"
       clip-path="none" />
    <path
       id="Path_149"
       data-name="Path 149"
       d="M 359.91767,757.78052 C 335.60534,744.99676 317.75609,718.32297 315.892,678.56512 a 118.178,118.178 0 0 1 2.57295,-31.74899 q -1.53423,-11.51761 -2.08742,-23.25198 a 267.4,267.4 0 0 1 4.34389,-62.45196 c -36.84133,24.95919 -58.35802,68.68953 -55.96066,119.8486 3.67482,78.29653 60.72092,133.80825 137.4183,130.20826 q 1.92656,-0.0897 3.83011,-0.23087 -1.32782,-1.17415 -2.63557,-2.36743 a 267.022,267.022 0 0 1 -43.45557,-50.79561"
       clip-path="none" />
    <path
       id="Path_150"
       data-name="Path 150"
       d="m 624.44198,347.07358 a 67.029,67.029 0 0 1 24.39078,-5.46568 c 32.50016,-1.52262 50.04895,12.2012 55.61562,31.36915 a 266.307,266.307 0 0 1 53.22369,35.81593 l -0.98413,-20.99548 c -2.34746,-50.06705 -34.22101,-92.3448 -110.92214,-88.7499 -37.95688,1.77941 -69.90947,19.31979 -87.24058,46.03072 q 6.05508,-0.55425 12.16509,-0.8456 a 268.108,268.108 0 0 1 53.74787,2.8421"
       clip-path="none" />
    <path
       id="Path_151"
       data-name="Path 151"
       d="m 855.29867,842.67332 c -3.92314,-31.75593 -25.85949,-55.04823 -63.80384,-64.37528 q -5.17756,6.4328 -10.77549,12.58475 a 268.988,268.988 0 0 1 -29.79104,28.11183 l 20.92986,3.57741 c 21.52683,3.79667 33.82185,15.4959 34.57051,31.47565 0.84855,18.10911 -13.84792,34.81312 -42.07799,36.13541 -34.08254,1.59726 -54.89773,-16.33517 -60.93765,-40.52254 q -2.40088,1.20908 -4.82898,2.3797 a 265.248,265.248 0 0 1 -39.69891,15.2616 c 6.69719,25.04525 31.71668,58.19213 81.82294,64.59271 a 356.142,356.142 0 0 0 106.71545,-80.27902 q 4.01872,-4.41389 7.87198,-8.94224"
       clip-path="none" />
    <path
       id="Path_152"
       data-name="Path 152"
       d="m 829.73306,468.18475 -13.8482,0.6491 0.55794,11.90107 q 4.09279,7.32475 7.74509,14.93774 4.20982,8.77875 7.74338,17.7867 l 35.07777,-1.64409 6.5918,140.61417 c 1.7302,36.89932 20.43592,60.47795 50.03694,67.52042 a 353.668,353.668 0 0 0 11.93666,-48.98619 c -7.97149,-5.36001 -11.61926,-14.81978 -12.25509,-28.33267 l -6.24266,-133.15813 8.692,-0.40584 A 356.671,356.671 0 0 0 865.66803,392.11512 l 1.63187,34.81363 c 1.04832,22.37096 -9.8705,39.96413 -37.56689,41.26233"
       clip-path="none" />
  </g>
  <g
     id="round_g2"
     >
    <path
       id="Path_156"
       data-name="Path 156"
       d="m 192.33084,664.25314 2.3336,-126.39956 c 1.02669,-55.59424 29.23136,-77.10686 70.66714,-76.34388 a 152.687,152.687 0 0 1 18.86142,1.57036 q 1.33518,-2.29491 2.70497,-4.56743 l 0.87655,-47.48074 a 92.828,92.828 45 0 0 -16.23021,-1.87643 c -25.70426,-0.4731 -57.34302,8.38643 -76.41607,46.85827 l 0.45448,-24.54159 q -7.54238,14.17973 -14.11835,28.94551 a 451.729,451.729 0 0 0 -37.34914,144.13078 l -1.0845,58.79475 z"
       clip-path="none" />
    <path
       id="Path_157"
       data-name="Path 157"
       d="m 752.32541,940.88672 c 56.00245,1.0339 86.45096,-32.62037 92.59029,-65.30839 a 362.091,362.091 0 0 1 -94.13289,65.26601 c 0.51442,0.0137 1.02372,0.0343 1.54322,0.0443"
       clip-path="none" />
    <path
       id="Path_158"
       data-name="Path 158"
       d="m 930.28377,410.69408 -35.52583,-0.65392 a 361.406,361.406 0 0 1 34.36198,63.73498 z"
       clip-path="none" />
    <path
       id="Path_159"
       data-name="Path 159"
       d="m 982.53365,536.00304 0.82291,-44.58126 -47.73685,-0.88165 a 359.813,359.813 0 0 1 12.91471,44.83449 z"
       clip-path="none" />
    <path
       id="Path_160"
       data-name="Path 160"
       d="m 945.084,745.69781 c 16.78318,0.30988 29.42949,-2.60469 33.65406,-4.10036 l 0.7717,-41.9591 a 99.7,99.7 0 0 1 -19.4428,1.74034 58.693,58.693 0 0 1 -13.51736,-1.64965 359.34,359.34 0 0 1 -14.13995,44.91372 96.205,96.205 0 0 0 12.67214,1.05472"
       clip-path="none" />
  </g>
  <g
     id="round_g1"
     >
    <path
       id="Path_135"
       data-name="Path 135"
       d="m 170.27297,444.18342 -45.23743,4.13133 10.63937,116.48757 a 467.215,467.215 0 0 1 34.59806,-120.6189"
       clip-path="none" />
    <path
       id="Path_154"
       data-name="Path 154"
       d="m 1032.9251,593.35312 q -0.2069,11.25899 8.6855,19.66661 8.8923,8.40762 22.1588,8.65412 c 0.682,0.0118 1.3544,0.004 2.0195,-0.0138 a 462.341,462.341 0 0 0 -2.3026,-55.4693 31.638,31.638 0 0 0 -21.1591,7.82973 q -9.1968,8.07834 -9.4062,19.33289"
       clip-path="none" />
    <path
       id="Path_155"
       data-name="Path 155"
       d="m 1060.9702,546.00747 a 450.427,450.427 0 0 0 -18.5052,-77.32093 l -1.4194,76.96033 z"
       clip-path="none" />
  </g>
  <g
     id="round_g0"
     >
    <path
       id="Path_133"
       data-name="Path 133"
       d="m 1062.9429,482.60051 16.4408,-1.50096 -16.7514,-183.40605 -48.0536,4.3892 6.8511,75.00489 c 0.4213,0.77577 0.8465,1.54713 1.2619,2.3238 a 463.1,463.1 0 0 1 40.249,103.18879"
       clip-path="none" />
    <path
       id="Path_134"
       data-name="Path 134"
       d="m 1080.5634,509.45693 a 30.518,30.518 0 0 0 -12.6969,-5.67101 473.862,473.862 0 0 1 7.7375,51.05478 30.4,30.4 0 0 0 8.5065,-6.53972 q 8.2628,-9.02718 7.2373,-20.2443 -1.0254,-11.21712 -10.7844,-18.59975"
       clip-path="none" />
  </g>
</svg>
