<?xml version="1.0" encoding="UTF-8" standalone="no"?>
<svg
   width="4000"
   height="1176.6149"
   viewBox="0 0 1058.3125 311.30656"
   version="1.1"
   id="svg4"
   xmlns="http://www.w3.org/2000/svg"
   xmlns:svg="http://www.w3.org/2000/svg">
  <defs
     id="defs2" />
  <path
     style="fill:#eeeeee;fill-opacity:1;stroke-width:0;stroke-dasharray:none"
     d="m 727.6375,113.51062 c -1.28635,1.71034 -2.29969,4.04086 -2.76722,6.69891 -0.53433,3.0378 -0.25271,5.91711 0.6113,8.08736 0.86401,2.17026 2.28113,3.60286 4.02528,3.90984 1.7441,0.30697 3.56507,-0.55614 5.11781,-2.30137 1.55274,-1.74522 2.8001,-4.35559 3.33465,-7.39323 0.53453,-3.0376 0.2529,-5.91633 -0.61121,-8.08663 -0.86411,-2.17029 -2.28188,-3.60296 -4.02569,-3.91014 l 3.2e-4,-4.3e-4 c -1.74408,-0.3068 -3.56493,0.55611 -5.11781,2.30136 -0.19411,0.21815 -0.38365,0.44999 -0.56742,0.69431 z m 4.58841,0.93525 a 0.3969142,0.3969142 0 0 1 0.55677,-0.0764 0.3969142,0.3969142 0 0 1 0.076,0.55646 c -1.36923,1.80265 -1.76738,4.16087 -1.06516,6.31291 0.78284,2.39861 0.33894,5.03038 -1.18727,7.03958 a 0.3969142,0.3969142 0 0 1 -0.55614,0.0756 0.3969142,0.3969142 0 0 1 -0.076,-0.55646 c 1.36921,-1.80245 1.76714,-4.16067 1.06485,-6.3125 -0.78275,-2.3988 -0.33931,-5.02982 1.18696,-7.03916 z"
     id="path2-0" />
  <path
     style="fill:#eeeeee;fill-opacity:1;stroke-width:0;stroke-dasharray:none"
     d="m 722.80545,98.22331 c -2.13287,0.17562 -4.54767,0.967413 -6.84443,2.38471 -2.62489,1.61977 -4.58905,3.74386 -5.63636,5.83184 -1.04731,2.08799 -1.17585,4.09897 -0.246,5.60618 0.92982,1.50716 2.78498,2.29409 5.12097,2.29433 2.33598,2.3e-4 5.1154,-0.8027 7.74033,-2.42221 2.62487,-1.61949 4.5886,-3.74321 5.63588,-5.83129 1.04727,-2.08808 1.17542,-4.09959 0.24596,-5.60669 l 5.2e-4,-4e-5 c -0.92993,-1.50704 -2.78487,-2.294008 -5.12096,-2.294334 -0.29201,-4.3e-5 -0.5912,0.01242 -0.89589,0.0375 z m 2.3508,4.04993 a 0.3969142,0.3969142 0 0 1 0.42714,0.36521 0.3969142,0.3969142 0 0 1 -0.36526,0.42663 c -2.25692,0.17504 -4.28354,1.4449 -5.42476,3.39988 -1.27188,2.17911 -3.5333,3.59659 -6.04888,3.79162 a 0.3969142,0.3969142 0 0 1 -0.42611,-0.36529 0.3969142,0.3969142 0 0 1 0.36526,-0.42662 c 2.25676,-0.17493 4.28323,-1.44495 5.42426,-3.39985 1.27207,-2.17916 3.53263,-3.59649 6.04836,-3.79158 z"
     id="path2-0-5" />
  <path
     style="fill:#eeeeee;fill-opacity:1;stroke-width:0;stroke-dasharray:none"
     d="m 320.08028,197.30723 c -2.13287,0.17562 -4.54767,0.96742 -6.84443,2.38471 -2.62489,1.61977 -4.58905,3.74387 -5.63636,5.83185 -1.04731,2.08798 -1.17585,4.09896 -0.246,5.60617 0.92982,1.50717 2.78498,2.2941 5.12097,2.29433 2.33598,2.4e-4 5.1154,-0.8027 7.74033,-2.42221 2.62487,-1.61949 4.5886,-3.7432 5.63588,-5.83129 1.04727,-2.08808 1.17542,-4.09959 0.24596,-5.60668 l 5.2e-4,-4e-5 c -0.92993,-1.50705 -2.78487,-2.29401 -5.12096,-2.29434 -0.29201,-4e-5 -0.5912,0.0124 -0.89589,0.0375 z m 2.3508,4.04993 a 0.3969142,0.3969142 0 0 1 0.42714,0.36521 0.3969142,0.3969142 0 0 1 -0.36526,0.42663 c -2.25692,0.17505 -4.28354,1.4449 -5.42476,3.39989 -1.27188,2.1791 -3.5333,3.59659 -6.04888,3.79162 a 0.3969142,0.3969142 0 0 1 -0.42611,-0.3653 0.3969142,0.3969142 0 0 1 0.36526,-0.42662 c 2.25676,-0.17493 4.28323,-1.44494 5.42426,-3.39985 1.27207,-2.17916 3.53263,-3.59649 6.04836,-3.79157 z"
     id="path2-0-5-5" />
  <path
     style="fill:#eeeeee;fill-opacity:1;stroke-width:0;stroke-dasharray:none"
     d="m 719.25292,196.41242 c -2.13287,0.17562 -4.54767,0.96741 -6.84443,2.38471 -2.62489,1.61977 -4.58905,3.74386 -5.63636,5.83184 -1.04731,2.08799 -1.17585,4.09897 -0.246,5.60618 0.92982,1.50717 2.78498,2.2941 5.12097,2.29433 2.33598,2.3e-4 5.1154,-0.8027 7.74033,-2.42221 2.62487,-1.61949 4.5886,-3.74321 5.63588,-5.83129 1.04727,-2.08808 1.17542,-4.09959 0.24596,-5.60669 l 5.2e-4,-4e-5 c -0.92993,-1.50704 -2.78487,-2.29401 -5.12096,-2.29433 -0.29201,-5e-5 -0.5912,0.0124 -0.89589,0.0375 z m 2.3508,4.04993 a 0.3969142,0.3969142 0 0 1 0.42714,0.36521 0.3969142,0.3969142 0 0 1 -0.36526,0.42663 c -2.25692,0.17504 -4.28354,1.4449 -5.42476,3.39989 -1.27188,2.1791 -3.5333,3.59658 -6.04888,3.79162 a 0.3969142,0.3969142 0 0 1 -0.42611,-0.3653 0.3969142,0.3969142 0 0 1 0.36526,-0.42662 c 2.25676,-0.17493 4.28323,-1.44495 5.42426,-3.39985 1.27207,-2.17916 3.53263,-3.59649 6.04836,-3.79157 z"
     id="path2-0-5-7" />
  <path
     style="fill:#eeeeee;fill-opacity:1;stroke-width:0;stroke-dasharray:none"
     d="m 741.62237,188.84643 c -1.5075,-1.51903 -3.66799,-2.8571 -6.23114,-3.70216 -2.92932,-0.96579 -5.81919,-1.10132 -8.09117,-0.55851 -2.27198,0.5428 -3.89355,1.73909 -4.44825,3.42093 -0.55469,1.6818 0.0375,3.60799 1.54118,5.39566 1.50369,1.78765 3.90745,3.39756 6.8366,4.36355 2.9291,0.96597 5.8184,1.1014 8.09044,0.55851 2.27202,-0.5429 3.89374,-1.73982 4.44861,-3.4213 l 3.7e-4,3.7e-4 c 0.55452,-1.6818 -0.0375,-3.60785 -1.54117,-5.39564 -0.18795,-0.22348 -0.39009,-0.44441 -0.60546,-0.6614 z m -1.58562,4.40613 a 0.3969142,0.3969142 0 0 1 -0.004,0.56197 0.3969142,0.3969142 0 0 1 -0.56161,-0.005 c -1.58691,-1.61431 -3.86333,-2.34758 -6.094,-1.96225 -2.48628,0.42962 -5.02681,-0.38827 -6.79555,-2.18765 a 0.3969142,0.3969142 0 0 1 0.005,-0.56123 0.3969142,0.3969142 0 0 1 0.56161,0.005 c 1.58672,1.61427 3.86316,2.34732 6.09364,1.9619 2.48645,-0.42951 5.02631,0.38782 6.79518,2.18728 z"
     id="path2-0-5-51" />
  <path
     id="path5"
     style="fill:none;stroke:#eeeeee;stroke-width:1.05831;stroke-linecap:butt;stroke-linejoin:miter;stroke-dasharray:4.23325, 4.23325;stroke-dashoffset:0;stroke-opacity:1"
     d="m 705.20565,213.91117 c -27.84428,46.18458 335.16385,24.21028 353.10685,21.98594" />
  <path
     id="path11"
     style="fill:none;stroke:#eeeeee;stroke-width:1.05831;stroke-linecap:butt;stroke-linejoin:miter;stroke-dasharray:4.23325, 4.23325;stroke-dashoffset:0;stroke-opacity:1"
     d="m 424.98857,88.117231 c 4.96562,-4.610611 10.32316,-10.176287 15.84036,-16.35174 10.40626,-11.647831 28.60371,14.081565 47.42622,40.142159 14.32454,19.83296 29.01111,39.85774 40.90109,43.74563 44.83572,2.53101 224.77496,-7.99526 212.09151,27.3991" />
  <path
     id="path9"
     style="fill:none;stroke:#eeeeee;stroke-width:1.05831;stroke-linecap:butt;stroke-linejoin:miter;stroke-dasharray:4.23325, 4.23325;stroke-dashoffset:0;stroke-opacity:1"
     d="M 0,89.347597 C 96.911068,96.768262 387.17591,57.452513 397.08307,88.117232" />
  <path
     id="path8"
     style="fill:none;stroke:#eeeeee;stroke-width:1.05831;stroke-linecap:butt;stroke-linejoin:miter;stroke-dasharray:4.23325, 4.23325;stroke-dashoffset:0;stroke-opacity:1"
     d="M 308.84015,214.87221 C 289.61049,243.1455 261.16599,269.37912 196.36714,279.1787" />
  <path
     id="path10"
     style="fill:none;stroke:#eeeeee;stroke-width:1.05831;stroke-linecap:butt;stroke-linejoin:miter;stroke-dasharray:4.23325, 4.23325;stroke-dashoffset:0;stroke-opacity:1"
     d="M 705.83267,112.56529 C 659.0853,118.67237 566.04837,76.546806 529.15625,155.65328 429.76912,145.0026 344.90309,152.75273 320.989,194.3826" />
  <path
     id="path12"
     style="fill:none;stroke:#eeeeee;stroke-width:1.05831;stroke-linecap:butt;stroke-linejoin:miter;stroke-dasharray:4.23325, 4.23325;stroke-dashoffset:0;stroke-opacity:1"
     d="M 1058.3125,64.405659 C 906.86166,120.39378 790.57642,54.234276 731.03898,105.82763" />
  <path
     d="m 398.06575,89.629225 c -0.36021,0.005 -0.71795,0.052 -1.07071,0.14417 -3.76283,0.98344 -5.52116,6.72299 -3.92682,12.819125 1.59428,6.09586 5.93652,10.23956 9.69896,9.25661 2.45828,-0.64265 4.0604,-3.31546 4.43168,-6.79118 -1.75632,-0.45055 -3.17025,-1.39745 -3.91441,-2.8499 -0.96593,-1.88532 -0.58613,-4.188765 0.71674,-6.341605 0.2573,-0.42515 0.55206,-0.84583 0.87952,-1.25881 -1.805,-3.07492 -4.36378,-5.01035 -6.81496,-4.97841 z m 0.36742,4.24617 a 0.39686718,0.39686718 0 0 1 0.20566,0.004 0.39686718,0.39686718 0 0 1 0.27078,0.49143 c -0.62839,2.17446 -0.15025,4.51765 1.27948,6.272355 1.5937,1.95572 2.1267,4.5701 1.42625,6.99375 a 0.39686718,0.39686718 0 0 1 -0.49144,0.2713 0.39686718,0.39686718 0 0 1 -0.27129,-0.49144 c 0.62838,-2.17428 0.15024,-4.51734 -1.27949,-6.27184 -1.59368,-1.955915 -2.12668,-4.570455 -1.42624,-6.994265 a 0.39686718,0.39686718 0 0 1 0.28629,-0.27543 z"
     style="fill:#eeeeee;fill-opacity:1;stroke:#ffffff;stroke-width:0;stroke-dasharray:none;stroke-opacity:1;paint-order:stroke markers fill"
     id="path1" />
  <path
     style="fill:#eeeeee;fill-opacity:1;stroke:#ffffff;stroke-width:0;stroke-dasharray:none;stroke-opacity:1;paint-order:stroke markers fill"
     d="m 417.77269,89.075265 c -2.14008,0.006 -4.61001,0.60411 -7.01184,1.835 -2.74495,1.40673 -4.87121,3.36855 -6.08065,5.367 -1.20942,1.99845 -1.49687,3.992935 -0.68935,5.569055 0.80751,1.5761 2.59449,2.50752 4.92312,2.69281 2.32863,0.18529 5.16293,-0.39493 7.90789,-1.80141 2.74493,-1.40646 4.87072,-3.367925 6.08013,-5.366485 1.2094,-1.99855 1.4965,-3.99359 0.68935,-5.56957 h 5.3e-4 c -0.80763,-1.57598 -2.59439,-2.50743 -4.92312,-2.69281 -0.29109,-0.0232 -0.59032,-0.0344 -0.89605,-0.0336 z m 2.02257,4.22343 a 0.3969142,0.3969142 0 0 1 0.39687,0.3979 0.3969142,0.3969142 0 0 1 -0.3979,0.39635 c -2.2637,-0.004 -4.38456,1.10102 -5.67706,2.95945 -1.44052,2.0715 -3.80711,3.305385 -6.33024,3.300515 a 0.3969142,0.3969142 0 0 1 -0.39583,-0.397905 0.3969142,0.3969142 0 0 1 0.3979,-0.39635 c 2.26353,0.004 4.38423,-1.10109 5.67654,-2.95945 1.44072,-2.07154 3.80644,-3.30534 6.32972,-3.30051 z"
     id="path2" />
</svg>
