<?xml version="1.0" encoding="UTF-8" standalone="no"?>
<svg
   width="1130.8099"
   height="979.11908"
   viewBox="0 0 291.47575 252.37617"
   version="1.1"
   id="svg4"
   xmlns="http://www.w3.org/2000/svg"
   xmlns:svg="http://www.w3.org/2000/svg">
  <defs
     id="defs2" />
  <path
     d="m 254.49183,190.13784 c -0.36021,0.005 -0.71795,0.052 -1.07071,0.14417 -3.76283,0.98344 -5.52116,6.72299 -3.92682,12.81914 1.59428,6.09586 5.93652,10.23956 9.69896,9.25661 2.45828,-0.64265 4.0604,-3.31546 4.43168,-6.79118 -1.75632,-0.45055 -3.17025,-1.39745 -3.91441,-2.8499 -0.96593,-1.88533 -0.58613,-4.18878 0.71674,-6.34162 0.2573,-0.42515 0.55206,-0.84583 0.87952,-1.25881 -1.805,-3.07492 -4.36378,-5.01035 -6.81496,-4.97841 z m 0.36742,4.24617 a 0.39686718,0.39686718 0 0 1 0.20566,0.004 0.39686718,0.39686718 0 0 1 0.27078,0.49143 c -0.62839,2.17446 -0.15025,4.51765 1.27948,6.27237 1.5937,1.95572 2.1267,4.5701 1.42625,6.99375 a 0.39686718,0.39686718 0 0 1 -0.49144,0.2713 0.39686718,0.39686718 0 0 1 -0.27129,-0.49144 c 0.62838,-2.17428 0.15024,-4.51734 -1.27949,-6.27184 -1.59368,-1.95593 -2.12668,-4.57047 -1.42624,-6.99428 a 0.39686718,0.39686718 0 0 1 0.28629,-0.27543 z"
     style="fill:#eeeeee;fill-opacity:1;stroke-width:0.264578"
     id="path1" />
  <path
     style="fill:#eeeeee;fill-opacity:1;stroke-width:0;stroke-dasharray:none"
     d="m 274.19877,189.58388 c -2.14008,0.006 -4.61001,0.60411 -7.01184,1.835 -2.74495,1.40673 -4.87121,3.36855 -6.08065,5.367 -1.20942,1.99845 -1.49687,3.99294 -0.68935,5.56907 0.80751,1.5761 2.59449,2.50752 4.92312,2.69281 2.32863,0.18529 5.16293,-0.39493 7.90789,-1.80141 2.74493,-1.40646 4.87072,-3.36794 6.08013,-5.3665 1.2094,-1.99855 1.4965,-3.99359 0.68935,-5.56957 h 5.3e-4 c -0.80763,-1.57598 -2.59439,-2.50743 -4.92312,-2.69281 -0.29109,-0.0232 -0.59032,-0.0344 -0.89605,-0.0336 z m 2.02257,4.22343 a 0.3969142,0.3969142 0 0 1 0.39687,0.3979 0.3969142,0.3969142 0 0 1 -0.3979,0.39635 c -2.2637,-0.004 -4.38456,1.10102 -5.67706,2.95945 -1.44052,2.0715 -3.80711,3.30539 -6.33024,3.30052 a 0.3969142,0.3969142 0 0 1 -0.39583,-0.3979 0.3969142,0.3969142 0 0 1 0.3979,-0.39635 c 2.26353,0.004 4.38423,-1.1011 5.67654,-2.95946 1.44072,-2.07154 3.80644,-3.30534 6.32972,-3.30051 z"
     id="path2" />
  <path
     style="fill:#eeeeee;fill-opacity:1;stroke-width:0;stroke-dasharray:none"
     d="m 96.480057,196.58927 c -2.13287,0.17562 -4.54767,0.96742 -6.84443,2.38471 -2.62489,1.61977 -4.58905,3.74387 -5.63636,5.83185 -1.04731,2.08798 -1.17585,4.09896 -0.246,5.60617 0.92982,1.50718 2.78498,2.29411 5.12097,2.29434 2.33598,2.4e-4 5.1154,-0.8027 7.74033,-2.42222 2.62487,-1.61949 4.588603,-3.7432 5.635883,-5.83129 1.04727,-2.08808 1.17542,-4.09959 0.24596,-5.60668 l 5.2e-4,-4e-5 c -0.92993,-1.50705 -2.784872,-2.29401 -5.120963,-2.29434 -0.29201,-4e-5 -0.5912,0.0124 -0.89589,0.0375 z m 2.3508,4.04993 a 0.3969142,0.3969142 0 0 1 0.42714,0.36521 0.3969142,0.3969142 0 0 1 -0.36526,0.42663 c -2.25692,0.17505 -4.28354,1.4449 -5.42476,3.39989 -1.27188,2.1791 -3.5333,3.59659 -6.04888,3.79162 a 0.3969142,0.3969142 0 0 1 -0.42611,-0.3653 0.3969142,0.3969142 0 0 1 0.36526,-0.42662 c 2.25676,-0.17493 4.28323,-1.44494 5.42426,-3.39985 1.27207,-2.17916 3.53263,-3.59649 6.04836,-3.79157 z"
     id="path2-0-5-5" />
  <path
     style="fill:#eeeeee;fill-opacity:1;stroke-width:0;stroke-dasharray:none"
     d="m 26.016154,81.184206 c -1.5075,-1.51903 -3.66799,-2.8571 -6.23114,-3.70216 -2.929321,-0.96579 -5.819191,-1.10132 -8.091171,-0.55851 -2.2719796,0.5428 -3.8935496,1.73909 -4.4482496,3.42093 -0.55469,1.6818 0.0375,3.60799 1.54118,5.39566 1.5036896,1.78765 3.9074496,3.39756 6.8365996,4.36355 2.929101,0.96597 5.818401,1.1014 8.090441,0.55851 2.27202,-0.5429 3.89374,-1.73982 4.44861,-3.4213 l 3.7e-4,3.7e-4 c 0.55452,-1.6818 -0.0375,-3.60785 -1.54117,-5.39564 -0.18795,-0.22348 -0.39009,-0.44441 -0.60546,-0.6614 z m -1.58562,4.40613 a 0.3969142,0.3969142 0 0 1 -0.004,0.56197 0.3969142,0.3969142 0 0 1 -0.56161,-0.005 c -1.58691,-1.61431 -3.86333,-2.34758 -6.094,-1.96225 -2.486281,0.42962 -5.026811,-0.38827 -6.795551,-2.18765 a 0.3969142,0.3969142 0 0 1 0.005,-0.56123 0.3969142,0.3969142 0 0 1 0.56161,0.005 c 1.58672,1.61427 3.86316,2.34732 6.093641,1.9619 2.48645,-0.42951 5.02631,0.38782 6.79518,2.18728 z"
     id="path2-0-5-51" />
  <path
     style="fill:#eeeeee;fill-opacity:1;stroke-width:0;stroke-dasharray:none"
     d="m 244.40834,72.897518 c 1.69769,-1.303 3.29858,-3.27666 4.46141,-5.71216 1.32897,-2.78344 1.82935,-5.63288 1.57862,-7.95531 -0.25072,-2.32243 -1.23204,-4.08243 -2.8301,-4.84564 -1.59802,-0.76319 -3.58369,-0.41969 -5.54739,0.84551 -1.96367,1.26521 -3.86501,3.44575 -5.19415,6.229 -1.32911,2.78319 -1.82933,5.63208 -1.57852,7.95458 0.25081,2.32248 1.23274,4.08271 2.83042,4.84605 l -4.2e-4,3.2e-4 c 1.59804,0.76302 3.58356,0.41967 5.54737,-0.84551 0.24548,-0.15813 0.49023,-0.33067 0.73274,-0.51683 z m -4.16987,-2.13081 a 0.3969142,0.3969142 0 0 1 -0.55694,-0.0751 0.3969142,0.3969142 0 0 1 0.0761,-0.55646 c 1.80227,-1.36971 2.81791,-3.53495 2.71815,-5.79645 -0.11132,-2.52067 1.0217,-4.93718 3.03058,-6.46382 a 0.3969142,0.3969142 0 0 1 0.55608,0.076 0.3969142,0.3969142 0 0 1 -0.0761,0.55645 c -1.80221,1.36953 -2.81763,3.53482 -2.71776,5.79615 0.11119,2.52082 -1.02119,4.93674 -3.03016,6.4635 z"
     id="path2-0-5-51-5" />
  <path
     style="fill:none;stroke:#eeeeee;stroke-width:1.05831;stroke-linecap:butt;stroke-linejoin:miter;stroke-dasharray:4.23326, 4.23326;stroke-dashoffset:0;stroke-opacity:1"
     d="M 23.110765,75.267459 C 101.89849,-21.829761 291.47576,36.832628 291.47576,36.832628"
     id="path3" />
  <path
     style="fill:none;stroke:#eeeeee;stroke-width:1.05831;stroke-linecap:butt;stroke-linejoin:miter;stroke-dasharray:4.23326, 4.23326;stroke-dashoffset:0;stroke-opacity:1"
     d="M 13.07187,95.989326 C -14.508068,182.04884 279.53854,107.72851 263.93972,191.37466"
     id="path3-3" />
  <path
     style="fill:none;stroke:#eeeeee;stroke-width:1.05831;stroke-linecap:butt;stroke-linejoin:miter;stroke-dasharray:4.23326, 4.23326;stroke-dashoffset:0;stroke-opacity:1"
     d="m 91.224671,218.1329 c 4.897725,59.28368 155.671629,28.47778 167.604369,-2.13301"
     id="path3-3-6" />
</svg>
