<?xml version="1.0" encoding="UTF-8" standalone="no"?>
<svg
   width="768"
   height="1172.203"
   viewBox="0 0 203.196 310.13928"
   version="1.1"
   id="svg4"
   xmlns="http://www.w3.org/2000/svg"
   xmlns:svg="http://www.w3.org/2000/svg">
  <defs
     id="defs2" />
  <path
     style="fill:#eeeeee;fill-opacity:1;stroke-width:0;stroke-dasharray:none"
     d="m 68.912818,249.73771 c -2.13287,0.17562 -4.54767,0.96741 -6.84443,2.38471 -2.62489,1.61977 -4.58905,3.74386 -5.63636,5.83184 -1.04731,2.08799 -1.17585,4.09897 -0.246,5.60618 0.92982,1.50717 2.78498,2.2941 5.12097,2.29433 2.33598,2.3e-4 5.1154,-0.8027 7.74033,-2.42221 2.62487,-1.61949 4.5886,-3.74321 5.63588,-5.83129 1.04727,-2.08808 1.17542,-4.09959 0.24596,-5.60669 l 5.2e-4,-4e-5 c -0.92993,-1.50704 -2.78487,-2.29401 -5.12096,-2.29433 -0.29201,-5e-5 -0.5912,0.0124 -0.89589,0.0375 z m 2.3508,4.04993 a 0.3969142,0.3969142 0 0 1 0.42714,0.36521 0.3969142,0.3969142 0 0 1 -0.36526,0.42663 c -2.25692,0.17504 -4.28354,1.4449 -5.42476,3.39989 -1.27188,2.1791 -3.5333,3.59658 -6.04888,3.79162 a 0.3969142,0.3969142 0 0 1 -0.42611,-0.3653 0.3969142,0.3969142 0 0 1 0.36526,-0.42662 c 2.25676,-0.17493 4.28323,-1.44495 5.42426,-3.39985 1.27207,-2.17916 3.53263,-3.59649 6.04836,-3.79157 z"
     id="path2-0-5-7" />
  <path
     style="fill:#eeeeee;fill-opacity:1;stroke-width:0;stroke-dasharray:none"
     d="m 91.282268,242.17172 c -1.5075,-1.51903 -3.66799,-2.8571 -6.23114,-3.70216 -2.92932,-0.96579 -5.81919,-1.10132 -8.09117,-0.55851 -2.27198,0.5428 -3.89355,1.73909 -4.44825,3.42093 -0.55469,1.6818 0.0375,3.60799 1.54118,5.39566 1.50369,1.78765 3.90745,3.39756 6.8366,4.36355 2.9291,0.96597 5.8184,1.1014 8.09044,0.55851 2.27202,-0.5429 3.89374,-1.73982 4.44861,-3.4213 l 3.7e-4,3.7e-4 c 0.55452,-1.6818 -0.0375,-3.60785 -1.54117,-5.39564 -0.18795,-0.22348 -0.39009,-0.44441 -0.60546,-0.6614 z m -1.58562,4.40613 a 0.3969142,0.3969142 0 0 1 -0.004,0.56197 0.3969142,0.3969142 0 0 1 -0.56161,-0.005 c -1.58691,-1.61431 -3.86333,-2.34758 -6.094,-1.96225 -2.48628,0.42962 -5.02681,-0.38827 -6.79555,-2.18765 a 0.3969142,0.3969142 0 0 1 0.005,-0.56123 0.3969142,0.3969142 0 0 1 0.56161,0.005 c 1.58672,1.61427 3.86316,2.34732 6.09364,1.9619 2.48645,-0.42951 5.02631,0.38782 6.79518,2.18728 z"
     id="path2-0-5-51" />
  <path
     style="fill:#eeeeee;fill-opacity:1;stroke-width:0;stroke-dasharray:none"
     d="m 193.83008,189.65716 c 1.69769,-1.303 3.29858,-3.27666 4.46141,-5.71216 1.32897,-2.78344 1.82935,-5.63288 1.57862,-7.95531 -0.25072,-2.32243 -1.23204,-4.08243 -2.8301,-4.84564 -1.59802,-0.76319 -3.58369,-0.41969 -5.54739,0.84551 -1.96367,1.26521 -3.86501,3.44575 -5.19415,6.229 -1.32911,2.78319 -1.82933,5.63208 -1.57852,7.95458 0.25081,2.32248 1.23274,4.08271 2.83042,4.84605 l -4.2e-4,3.2e-4 c 1.59804,0.76302 3.58356,0.41967 5.54737,-0.84551 0.24548,-0.15813 0.49023,-0.33067 0.73274,-0.51683 z m -4.16987,-2.13081 a 0.3969142,0.3969142 0 0 1 -0.55694,-0.0751 0.3969142,0.3969142 0 0 1 0.0761,-0.55646 c 1.80227,-1.36971 2.81791,-3.53495 2.71815,-5.79645 -0.11132,-2.52067 1.0217,-4.93718 3.03058,-6.46382 a 0.3969142,0.3969142 0 0 1 0.55608,0.076 0.3969142,0.3969142 0 0 1 -0.0761,0.55645 c -1.80221,1.36953 -2.81763,3.53482 -2.71776,5.79615 0.11119,2.52082 -1.02119,4.93674 -3.03016,6.4635 z"
     id="path2-0-5-51-5" />
  <path
     id="path3-6"
     style="fill:none;stroke:#eeeeee;stroke-width:1.05831;stroke-linecap:butt;stroke-linejoin:miter;stroke-dasharray:4.23326, 4.23326;stroke-dashoffset:0;stroke-opacity:1"
     d="m 93.277258,238.04446 c 37.509222,-32.181 67.346952,-112.76307 67.346952,-158.640404 0,-45.877337 -25.3108,-52.993076 -49.18173,-52.993076 -23.870932,0 -44.841082,18.201435 -44.841082,53.556194 0,35.354756 104.775022,81.509106 118.356152,95.090236" />
  <path
     id="path7"
     style="fill:none;stroke:#eeeeee;stroke-width:1.05831;stroke-linecap:butt;stroke-linejoin:miter;stroke-dasharray:4.23326, 4.23326;stroke-dashoffset:0;stroke-opacity:1"
     d="m 1.7852551,272.0309 c 5.9460108,6.68741 16.8212729,14.01778 51.4930429,-3.88901" />
</svg>
