<?xml version="1.0" encoding="UTF-8" standalone="no"?>
<svg
   width="768"
   height="997.18903"
   viewBox="0 0 203.196 263.8344"
   version="1.1"
   id="svg4"
   xmlns="http://www.w3.org/2000/svg"
   xmlns:svg="http://www.w3.org/2000/svg">
  <defs
     id="defs2" />
  <path
     d="m 89.511571,241.20574 c -0.36021,0.005 -0.71795,0.052 -1.07071,0.14417 -3.76283,0.98344 -5.52116,6.72299 -3.92682,12.81913 1.59428,6.09586 5.93652,10.23956 9.69896,9.25661 2.45828,-0.64265 4.0604,-3.31546 4.43168,-6.79118 -1.75632,-0.45055 -3.17025,-1.39745 -3.91441,-2.8499 -0.96593,-1.88533 -0.58613,-4.18877 0.71674,-6.34161 0.2573,-0.42515 0.55206,-0.84583 0.87952,-1.25881 -1.805,-3.07492 -4.36378,-5.01035 -6.81496,-4.97841 z m 0.36742,4.24617 a 0.39686718,0.39686718 0 0 1 0.20566,0.004 0.39686718,0.39686718 0 0 1 0.27078,0.49143 c -0.62839,2.17446 -0.15025,4.51765 1.27948,6.27236 1.5937,1.95572 2.1267,4.5701 1.42625,6.99375 a 0.39686718,0.39686718 0 0 1 -0.49144,0.2713 0.39686718,0.39686718 0 0 1 -0.27129,-0.49144 c 0.62838,-2.17428 0.15024,-4.51734 -1.27949,-6.27184 -1.59368,-1.95592 -2.12668,-4.57046 -1.42624,-6.99427 a 0.39686718,0.39686718 0 0 1 0.28629,-0.27543 z"
     style="fill:#eeeeee;fill-opacity:1;stroke-width:0.264578"
     id="path1" />
  <path
     style="fill:#eeeeee;fill-opacity:1;stroke-width:0;stroke-dasharray:none"
     d="m 109.21851,240.65178 c -2.14008,0.006 -4.61001,0.60411 -7.01184,1.835 -2.744949,1.40673 -4.871209,3.36855 -6.080649,5.367 -1.20942,1.99845 -1.49687,3.99293 -0.68935,5.56906 0.80751,1.5761 2.59449,2.50752 4.923119,2.69281 2.32863,0.18529 5.16293,-0.39493 7.90789,-1.80141 2.74493,-1.40646 4.87072,-3.36793 6.08013,-5.36649 1.2094,-1.99855 1.4965,-3.99359 0.68935,-5.56957 h 5.3e-4 c -0.80763,-1.57598 -2.59439,-2.50743 -4.92312,-2.69281 -0.29109,-0.0232 -0.59032,-0.0344 -0.89605,-0.0336 z m 2.02257,4.22343 a 0.3969142,0.3969142 0 0 1 0.39687,0.3979 0.3969142,0.3969142 0 0 1 -0.3979,0.39635 c -2.2637,-0.004 -4.38456,1.10102 -5.67706,2.95945 -1.44052,2.0715 -3.80711,3.30538 -6.330239,3.30051 a 0.3969142,0.3969142 0 0 1 -0.39583,-0.3979 0.3969142,0.3969142 0 0 1 0.3979,-0.39635 c 2.263529,0.004 4.384229,-1.10109 5.676539,-2.95945 1.44072,-2.07154 3.80644,-3.30534 6.32972,-3.30051 z"
     id="path2" />
  <path
     style="fill:#eeeeee;fill-opacity:1;stroke-width:0;stroke-dasharray:none"
     d="m 53.894658,15.324816 c -1.28635,1.710343 -2.29969,4.040863 -2.76722,6.698913 -0.53433,3.037795 -0.25271,5.917103 0.6113,8.087359 0.86401,2.170259 2.28113,3.602853 4.02528,3.909834 1.7441,0.306974 3.56507,-0.556136 5.11781,-2.301367 1.55274,-1.745225 2.8001,-4.355587 3.33465,-7.393235 0.53453,-3.037595 0.2529,-5.916329 -0.61121,-8.086626 -0.86411,-2.170294 -2.28188,-3.602956 -4.02569,-3.910144 l 3.2e-4,-4.23e-4 c -1.74408,-0.306807 -3.56493,0.556112 -5.11781,2.301359 -0.19411,0.218152 -0.38365,0.449989 -0.56742,0.694313 z m 4.58841,0.935247 a 0.3969142,0.3969142 0 0 1 0.55677,-0.07642 0.3969142,0.3969142 0 0 1 0.076,0.556462 c -1.36923,1.802653 -1.76738,4.160872 -1.06516,6.312905 0.78284,2.398611 0.33894,5.030381 -1.18727,7.039581 a 0.3969142,0.3969142 0 0 1 -0.55614,0.07559 0.3969142,0.3969142 0 0 1 -0.076,-0.556454 c 1.36921,-1.802457 1.76714,-4.16067 1.06485,-6.312501 -0.78275,-2.398798 -0.33931,-5.029822 1.18696,-7.039165 z"
     id="path2-0" />
  <path
     style="fill:#eeeeee;fill-opacity:1;stroke-width:0;stroke-dasharray:none"
     d="m 49.062608,0.03750411 c -2.13287,0.17562 -4.54767,0.96741349 -6.84443,2.38470749 -2.62489,1.619773 -4.58905,3.743865 -5.63636,5.831847 -1.04731,2.0879844 -1.17585,4.0989624 -0.246,5.6061724 0.92982,1.507168 2.78498,2.294098 5.12097,2.294331 2.33598,2.36e-4 5.1154,-0.802696 7.74033,-2.422206 2.62487,-1.61949 4.5886,-3.7432094 5.63588,-5.8312924 1.04727,-2.088082 1.17542,-4.099591 0.24596,-5.606685 l 5.2e-4,-4.2e-5 C 54.149548,0.78729411 52.294608,3.2611089e-4 49.958518,1.1088621e-7 49.666508,-4.2889114e-5 49.367318,0.01242011 49.062628,0.03750011 Z m 2.3508,4.04992849 a 0.3969142,0.3969142 0 0 1 0.42714,0.365213 0.3969142,0.3969142 0 0 1 -0.36526,0.426626 c -2.25692,0.175046 -4.28354,1.444902 -5.42476,3.399887 -1.27188,2.1791054 -3.5333,3.5965884 -6.04888,3.7916204 a 0.3969142,0.3969142 0 0 1 -0.42611,-0.365293 0.3969142,0.3969142 0 0 1 0.36526,-0.426622 c 2.25676,-0.17493 4.28323,-1.4449464 5.42426,-3.3998494 1.27207,-2.179163 3.53263,-3.596493 6.04836,-3.791576 z"
     id="path2-0-5" />
  <path
     style="fill:#eeeeee;fill-opacity:1;stroke-width:0;stroke-dasharray:none"
     d="m 121.16161,91.560399 c -2.13287,0.17562 -4.54767,0.96742 -6.84443,2.38471 -2.62489,1.61977 -4.58905,3.74387 -5.63636,5.83185 -1.04731,2.087981 -1.17585,4.098961 -0.246,5.606171 0.92982,1.50717 2.78498,2.2941 5.12097,2.29433 2.33598,2.4e-4 5.1154,-0.8027 7.74033,-2.42221 2.62487,-1.61949 4.5886,-3.7432 5.63588,-5.831291 1.04727,-2.08808 1.17542,-4.09959 0.24596,-5.60668 l 5.2e-4,-4e-5 c -0.92993,-1.50705 -2.78487,-2.29401 -5.12096,-2.29434 -0.29201,-4e-5 -0.5912,0.0124 -0.89589,0.0375 z m 2.3508,4.04993 a 0.3969142,0.3969142 0 0 1 0.42714,0.36521 0.3969142,0.3969142 0 0 1 -0.36526,0.42663 c -2.25692,0.17505 -4.28354,1.4449 -5.42476,3.39989 -1.27188,2.179101 -3.5333,3.596591 -6.04888,3.791621 a 0.3969142,0.3969142 0 0 1 -0.42611,-0.3653 0.3969142,0.3969142 0 0 1 0.36526,-0.42662 c 2.25676,-0.17493 4.28323,-1.44494 5.42426,-3.399851 1.27207,-2.17916 3.53263,-3.59649 6.04836,-3.79157 z"
     id="path2-0-5-5" />
  <path
     style="fill:none;stroke:#eeeeee;stroke-width:1.05831;stroke-linecap:butt;stroke-linejoin:miter;stroke-dasharray:4.23326, 4.23326;stroke-dashoffset:0;stroke-opacity:1"
     d="M 0.37181769,12.119736 C 20.487796,-7.9962449 38.133808,6.5556556 38.133808,6.5556556"
     id="path3" />
  <path
     id="path3-6"
     style="fill:none;stroke:#eeeeee;stroke-width:1.05831;stroke-linecap:butt;stroke-linejoin:miter;stroke-dasharray:4.23326, 4.23326;stroke-dashoffset:0;stroke-opacity:1"
     d="m 116.54119,239.91396 c 40.89577,-31.65328 46.41438,-98.38281 84.91539,-63.19089" />
  <path
     id="path7"
     style="fill:none;stroke:#eeeeee;stroke-width:1.05831;stroke-linecap:butt;stroke-linejoin:miter;stroke-dasharray:4.23326, 4.23326;stroke-dashoffset:0;stroke-opacity:1"
     d="m 118.47887,114.69431 c -1.27303,54.5426 -83.387688,90.95309 -35.089961,134.08534" />
  <path
     id="path4"
     style="fill:none;stroke:#eeeeee;stroke-width:1.05831;stroke-linecap:butt;stroke-linejoin:miter;stroke-dasharray:4.23326, 4.23326;stroke-dashoffset:0;stroke-opacity:1"
     d="M 64.875033,31.708763 C 89.922743,52.983288 93.384791,13.787962 114.61489,7.8513456 145.94248,-0.90885399 114.97808,54.91807 114.91038,89.42424" />
</svg>
