<?xml version="1.0" encoding="UTF-8" standalone="no"?>
<svg
   width="2024.859"
   height="1009.189"
   viewBox="0 0 535.7334 267.00936"
   version="1.1"
   id="svg4"
   xmlns="http://www.w3.org/2000/svg"
   xmlns:svg="http://www.w3.org/2000/svg">
  <defs
     id="defs2" />
  <path
     d="m 60.140497,36.716657 c -0.36021,0.005 -0.71795,0.052 -1.07071,0.14417 -3.76283,0.98344 -5.52116,6.72299 -3.92682,12.81913 1.59428,6.09586 5.93652,10.23956 9.69896,9.25661 2.45828,-0.64265 4.0604,-3.31546 4.43168,-6.79118 -1.75632,-0.45055 -3.17025,-1.39745 -3.91441,-2.8499 -0.96593,-1.88533 -0.58613,-4.18877 0.71674,-6.34161 0.2573,-0.42515 0.55206,-0.84583 0.87952,-1.25881 -1.805,-3.07492 -4.36378,-5.01035 -6.81496,-4.97841 z m 0.36742,4.24617 a 0.39686718,0.39686718 0 0 1 0.20566,0.004 0.39686718,0.39686718 0 0 1 0.27078,0.49143 c -0.62839,2.17446 -0.15025,4.51765 1.27948,6.27236 1.5937,1.95572 2.1267,4.5701 1.42625,6.99375 a 0.39686718,0.39686718 0 0 1 -0.49144,0.2713 0.39686718,0.39686718 0 0 1 -0.27129,-0.49144 c 0.62838,-2.17428 0.15024,-4.51734 -1.27949,-6.27184 -1.59368,-1.95592 -2.12668,-4.57046 -1.42624,-6.99427 a 0.39686718,0.39686718 0 0 1 0.28629,-0.27543 z"
     style="fill:#eeeeee;fill-opacity:1;stroke-width:0.264578"
     id="path1" />
  <path
     style="fill:#eeeeee;fill-opacity:1;stroke-width:0;stroke-dasharray:none"
     d="m 79.847437,36.162697 c -2.14008,0.006 -4.61001,0.60411 -7.01184,1.835 -2.74495,1.40673 -4.87121,3.36855 -6.08065,5.367 -1.20942,1.99845 -1.49687,3.99293 -0.68935,5.56906 0.80751,1.5761 2.59449,2.50752 4.92312,2.69281 2.32863,0.18529 5.16293,-0.39493 7.90789,-1.80141 2.744929,-1.40646 4.870719,-3.36793 6.080129,-5.36649 1.2094,-1.99855 1.4965,-3.99359 0.68935,-5.56957 h 5.3e-4 c -0.80763,-1.57598 -2.59439,-2.50743 -4.92312,-2.69281 -0.29109,-0.0232 -0.59032,-0.0344 -0.896049,-0.0336 z m 2.022569,4.22343 a 0.3969142,0.3969142 0 0 1 0.39687,0.3979 0.3969142,0.3969142 0 0 1 -0.3979,0.39635 c -2.263699,-0.004 -4.384559,1.10102 -5.677059,2.95945 -1.44052,2.0715 -3.80711,3.30538 -6.33024,3.30051 a 0.3969142,0.3969142 0 0 1 -0.39583,-0.3979 0.3969142,0.3969142 0 0 1 0.3979,-0.39635 c 2.26353,0.004 4.38423,-1.10109 5.67654,-2.95945 1.44072,-2.07154 3.80644,-3.30534 6.329719,-3.30051 z"
     id="path2" />
  <path
     style="fill:#eeeeee;fill-opacity:1;stroke-width:0;stroke-dasharray:none"
     d="m 303.82574,16.433158 c -1.28635,1.710343 -2.29969,4.040863 -2.76722,6.698913 -0.53433,3.037795 -0.25271,5.917103 0.6113,8.087359 0.86401,2.170259 2.28113,3.602853 4.02528,3.909834 1.7441,0.306974 3.56507,-0.556136 5.11781,-2.301367 1.55274,-1.745225 2.8001,-4.355587 3.33465,-7.393235 0.53453,-3.037595 0.2529,-5.916329 -0.61121,-8.086626 -0.86411,-2.170294 -2.28188,-3.602956 -4.02569,-3.910144 l 3.2e-4,-4.23e-4 c -1.74408,-0.306807 -3.56493,0.556112 -5.11781,2.301359 -0.19411,0.218152 -0.38365,0.449989 -0.56742,0.694313 z m 4.58841,0.935247 a 0.3969142,0.3969142 0 0 1 0.55677,-0.07642 0.3969142,0.3969142 0 0 1 0.076,0.556462 c -1.36923,1.802653 -1.76738,4.160872 -1.06516,6.312905 0.78284,2.398611 0.33894,5.030381 -1.18727,7.039581 a 0.3969142,0.3969142 0 0 1 -0.55614,0.07559 0.3969142,0.3969142 0 0 1 -0.076,-0.556454 c 1.36921,-1.802457 1.76714,-4.16067 1.06485,-6.312501 -0.78275,-2.398798 -0.33931,-5.029822 1.18696,-7.039165 z"
     id="path2-0" />
  <path
     style="fill:#eeeeee;fill-opacity:1;stroke-width:0;stroke-dasharray:none"
     d="m 298.99369,1.145846 c -2.13287,0.17562 -4.54767,0.9674134 -6.84443,2.3847074 -2.62489,1.619773 -4.58905,3.743865 -5.63636,5.831847 -1.04731,2.0879846 -1.17585,4.0989626 -0.246,5.6061726 0.92982,1.507168 2.78498,2.294098 5.12097,2.294331 2.33598,2.36e-4 5.1154,-0.802696 7.74033,-2.422206 2.62487,-1.61949 4.5886,-3.743209 5.63588,-5.8312926 1.04727,-2.088082 1.17542,-4.099591 0.24596,-5.606685 l 5.2e-4,-4.2e-5 C 304.08063,1.8956359 302.22569,1.108668 299.8896,1.108342 c -0.29201,-4.3e-5 -0.5912,0.01242 -0.89589,0.0375 z m 2.3508,4.0499284 a 0.3969142,0.3969142 0 0 1 0.42714,0.365213 0.3969142,0.3969142 0 0 1 -0.36526,0.426626 c -2.25692,0.175046 -4.28354,1.444902 -5.42476,3.399887 -1.27188,2.1791056 -3.5333,3.5965886 -6.04888,3.7916206 a 0.3969142,0.3969142 0 0 1 -0.42611,-0.365293 0.3969142,0.3969142 0 0 1 0.36526,-0.426622 c 2.25676,-0.17493 4.28323,-1.444946 5.42426,-3.3998496 1.27207,-2.179163 3.53263,-3.596493 6.04836,-3.791576 z"
     id="path2-0-5" />
  <path
     style="fill:#eeeeee;fill-opacity:1;stroke-width:0;stroke-dasharray:none"
     d="m 371.09269,92.668741 c -2.13287,0.17562 -4.54767,0.96742 -6.84443,2.38471 -2.62489,1.61977 -4.58905,3.74387 -5.63636,5.831849 -1.04731,2.08798 -1.17585,4.09896 -0.246,5.60617 0.92982,1.50717 2.78498,2.2941 5.12097,2.29433 2.33598,2.4e-4 5.1154,-0.8027 7.74033,-2.42221 2.62487,-1.61949 4.5886,-3.7432 5.63588,-5.83129 1.04727,-2.088079 1.17542,-4.099589 0.24596,-5.606679 l 5.2e-4,-4e-5 c -0.92993,-1.50705 -2.78487,-2.29401 -5.12096,-2.29434 -0.29201,-4e-5 -0.5912,0.0124 -0.89589,0.0375 z m 2.3508,4.04993 a 0.3969142,0.3969142 0 0 1 0.42714,0.36521 0.3969142,0.3969142 0 0 1 -0.36526,0.42663 c -2.25692,0.17505 -4.28354,1.4449 -5.42476,3.399889 -1.27188,2.1791 -3.5333,3.59659 -6.04888,3.79162 a 0.3969142,0.3969142 0 0 1 -0.42611,-0.3653 0.3969142,0.3969142 0 0 1 0.36526,-0.42662 c 2.25676,-0.17493 4.28323,-1.44494 5.42426,-3.39985 1.27207,-2.179159 3.53263,-3.596489 6.04836,-3.791569 z"
     id="path2-0-5-5" />
  <path
     style="fill:none;stroke:#eeeeee;stroke-width:1.05831;stroke-linecap:butt;stroke-linejoin:miter;stroke-dasharray:4.23326, 4.23326;stroke-dashoffset:0;stroke-opacity:1"
     d="M 155.53967,116.85804 C 256.96216,98.784382 238.51866,-21.148622 288.06489,7.6639974"
     id="path3" />
  <path
     id="path7"
     style="fill:none;stroke:#eeeeee;stroke-width:1.05831;stroke-linecap:butt;stroke-linejoin:miter;stroke-dasharray:4.23326, 4.23326;stroke-dashoffset:0;stroke-opacity:1"
     d="m 365.08492,114.69431 c -10.11015,117.298 62.50537,23.77758 85.16514,58.16392" />
  <path
     id="path4"
     style="fill:none;stroke:#eeeeee;stroke-width:1.05831;stroke-linecap:butt;stroke-linejoin:miter;stroke-dasharray:4.23326, 4.23326;stroke-dashoffset:0;stroke-opacity:1"
     d="m 314.80611,32.817105 c 25.04771,21.274525 28.50976,-17.920801 49.73986,-23.8574176 31.32759,-8.76019953 0.36319,47.0667246 0.29549,81.5728946" />
  <path
     style="fill:#eeeeee;fill-opacity:1;stroke-width:0;stroke-dasharray:none"
     d="m 151.87426,115.8579 c -1.5075,-1.51903 -3.66799,-2.8571 -6.23114,-3.70216 -2.92932,-0.96579 -5.81919,-1.10132 -8.09117,-0.55851 -2.27198,0.5428 -3.89355,1.73909 -4.44825,3.42093 -0.55469,1.6818 0.0375,3.60799 1.54118,5.39566 1.50369,1.78765 3.90745,3.39756 6.8366,4.36355 2.9291,0.96597 5.8184,1.1014 8.09044,0.55851 2.27202,-0.5429 3.89374,-1.73982 4.44861,-3.4213 l 3.7e-4,3.7e-4 c 0.55452,-1.6818 -0.0375,-3.60785 -1.54117,-5.39564 -0.18795,-0.22348 -0.39009,-0.44441 -0.60546,-0.6614 z m -1.58562,4.40613 a 0.3969142,0.3969142 0 0 1 -0.004,0.56197 0.3969142,0.3969142 0 0 1 -0.56161,-0.005 c -1.58691,-1.61431 -3.86333,-2.34758 -6.094,-1.96225 -2.48628,0.42962 -5.02681,-0.38827 -6.79555,-2.18765 a 0.3969142,0.3969142 0 0 1 0.005,-0.56123 0.3969142,0.3969142 0 0 1 0.56161,0.005 c 1.58672,1.61427 3.86316,2.34732 6.09364,1.9619 2.48645,-0.42951 5.02631,0.38782 6.79518,2.18728 z"
     id="path2-0-5-51" />
  <path
     style="fill:#eeeeee;fill-opacity:1;stroke-width:0;stroke-dasharray:none"
     d="m 459.4028,187.49149 c 1.69769,-1.303 3.29858,-3.27666 4.46141,-5.71216 1.32897,-2.78344 1.82935,-5.63288 1.57862,-7.95531 -0.25072,-2.32243 -1.23204,-4.08243 -2.8301,-4.84564 -1.59802,-0.76319 -3.58369,-0.41969 -5.54739,0.84551 -1.96367,1.26521 -3.86501,3.44575 -5.19415,6.229 -1.32911,2.78319 -1.82933,5.63208 -1.57852,7.95458 0.25081,2.32248 1.23274,4.08271 2.83042,4.84605 l -4.2e-4,3.2e-4 c 1.59804,0.76302 3.58356,0.41967 5.54737,-0.84551 0.24548,-0.15813 0.49023,-0.33067 0.73274,-0.51683 z m -4.16987,-2.13081 a 0.3969142,0.3969142 0 0 1 -0.55694,-0.0751 0.3969142,0.3969142 0 0 1 0.0761,-0.55646 c 1.80227,-1.36971 2.81791,-3.53495 2.71815,-5.79645 -0.11132,-2.52067 1.0217,-4.93718 3.03058,-6.46382 a 0.3969142,0.3969142 0 0 1 0.55608,0.076 0.3969142,0.3969142 0 0 1 -0.0761,0.55645 c -1.80221,1.36953 -2.81763,3.53482 -2.71776,5.79615 0.11119,2.52082 -1.02119,4.93674 -3.03016,6.4635 z"
     id="path2-0-5-51-5" />
</svg>
