<?xml version="1.0" encoding="UTF-8" standalone="no"?>
<svg
   width="349.18701"
   height="304.3176"
   viewBox="0 0 92.387245 80.51578"
   version="1.1"
   id="svg4"
   xmlns="http://www.w3.org/2000/svg"
   xmlns:svg="http://www.w3.org/2000/svg">
  <defs
     id="defs2" />
  <path
     d="m 45.048576,58.151592 c -0.360207,0.0047 -0.717949,0.05198 -1.070713,0.144174 -3.762825,0.983437 -5.521158,6.722988 -3.926816,12.819123 1.594277,6.095864 5.936517,10.239562 9.698957,9.256615 2.458285,-0.642655 4.060396,-3.31546 4.431684,-6.791181 -1.756323,-0.450547 -3.170255,-1.397448 -3.914412,-2.8499 -0.965932,-1.885326 -0.586128,-4.188775 0.716739,-6.341608 0.257297,-0.425153 0.552056,-0.845838 0.879516,-1.258812 -1.804992,-3.074925 -4.363779,-5.010351 -6.814955,-4.978411 z m 0.367414,4.24617 a 0.39686718,0.39686718 0 0 1 0.205668,0.0041 0.39686718,0.39686718 0 0 1 0.270779,0.491432 c -0.628391,2.174457 -0.150256,4.51765 1.279482,6.27236 1.593699,1.955714 2.126695,4.570103 1.426243,6.993752 a 0.39686718,0.39686718 0 0 1 -0.491433,0.271293 0.39686718,0.39686718 0 0 1 -0.271296,-0.491432 c 0.628381,-2.174282 0.150241,-4.517344 -1.279484,-6.271846 -1.593689,-1.955915 -2.126687,-4.570461 -1.426243,-6.994266 a 0.39686718,0.39686718 0 0 1 0.286284,-0.275431 z"
     style="fill:#eeeeee;fill-opacity:1;stroke-width:0.264578"
     id="path1" />
  <path
     style="fill:#eeeeee;fill-opacity:1;stroke-width:0;stroke-dasharray:none"
     d="m 64.755513,57.597632 c -2.140078,0.0061 -4.61001,0.604108 -7.011837,1.834995 -2.744955,1.406735 -4.871213,3.368558 -6.080648,5.367007 -1.209426,1.998453 -1.496869,3.992929 -0.68935,5.56906 0.807503,1.576095 2.59449,2.507515 4.923119,2.692807 2.328626,0.18529 5.162924,-0.394927 7.907888,-1.801406 2.744929,-1.406458 4.870722,-3.367937 6.08013,-5.366492 1.209399,-1.998551 1.496496,-3.99359 0.68935,-5.569576 h 5.29e-4 C 69.767069,58.748052 67.980302,57.816605 65.651578,57.63122 65.360486,57.60804 65.061251,57.59677 64.755526,57.59763 Z m 2.022575,4.223431 a 0.3969142,0.3969142 0 0 1 0.396867,0.397902 0.3969142,0.3969142 0 0 1 -0.397902,0.396351 c -2.263701,-0.0043 -4.384554,1.101013 -5.67706,2.959449 -1.440517,2.071497 -3.80711,3.305378 -6.330238,3.30051 a 0.3969142,0.3969142 0 0 1 -0.395833,-0.397899 0.3969142,0.3969142 0 0 1 0.397899,-0.396351 c 2.26353,0.0044 4.384237,-1.101088 5.676545,-2.959453 1.440718,-2.071543 3.806443,-3.305337 6.329722,-3.300509 z"
     id="path2" />
  <path
     style="fill:none;stroke:#eeeeee;stroke-width:1.05831;stroke-linecap:butt;stroke-linejoin:miter;stroke-dasharray:4.23326, 4.23326;stroke-dashoffset:0;stroke-opacity:1"
     d="m 92.009122,0.37017463 c 0,0 -26.345449,27.27781237 -48.004574,27.73007637 C 32.391002,28.342754 -1.1518883,29.007023 0.57841567,58.771528 2.3893387,89.92281 38.340408,75.935346 38.340408,75.935346"
     id="path3" />
</svg>
