<svg xmlns="http://www.w3.org/2000/svg" width="64" height="64" viewBox="0 0 16.933 16.933"><g stroke="#fff800" stroke-width=".513"><path d="M5.545 14.375c-1.93.505-4.16-1.622-4.978-4.75C-.25 6.496.652 3.55 2.583 3.046c1.93-.505 4.16 1.622 4.977 4.75.819 3.129-.084 6.075-2.015 6.58" data-name="Path 51"/><path d="M16.413 3.994c.91 1.777-.685 4.412-3.562 5.887-2.878 1.474-5.95 1.23-6.86-.546-.91-1.777.685-4.412 3.563-5.887 2.878-1.475 5.95-1.23 6.86.546" data-name="Path 49"/><path fill="none" stroke-linecap="round" stroke-miterlimit="10" d="M3.37 5.35a3.744 3.744 0 0 0 .694 3.403 3.743 3.743 0 0 1 .694 3.404" data-name="Path 247"/><path fill="none" stroke-linecap="round" stroke-miterlimit="10" d="M14.284 5.06a3.744 3.744 0 0 0-3.082 1.606 3.744 3.744 0 0 1-3.08 1.606" data-name="Path 248"/></g></svg>