<svg xmlns="http://www.w3.org/2000/svg" width="119" height="123" fill="none"><path fill="#fff" stroke="#fff" d="M46.549 46.51v-6.477h25.315v6.476l4.71 8.242v21.194l-8.831 4.71H42.428V54.751l4.12-8.242Z"/><path fill="#10228F" d="m77.073 51.288-2.537-3.478v-7.065c0-1.205-.98-2.184-2.185-2.184H46.53c-1.205 0-2.185.979-2.185 2.184v7.296l-2.3 5.013a12.257 12.257 0 0 0-1.122 5.133V81.7c0 1.205.98 2.185 2.184 2.185H68.82c.038 0 .077.005.115.005.424 0 .853-.126 1.233-.38l7.406-5.062a2.191 2.191 0 0 0 .952-1.805V55.733c0-1.612-.5-3.158-1.453-4.462v.017Zm-6.911-8.353v3.406H48.713v-3.406h21.449Zm-3.423 36.59H45.291V58.199c0-1.15.242-2.267.72-3.312l1.915-4.17H68.94l-.947 2.063a13.667 13.667 0 0 0-1.254 5.739V79.53v-.005Zm7.412-4.022-3.043 2.08V58.518c0-1.36.286-2.68.853-3.913l.814-1.771.76 1.04c.401.55.616 1.2.616 1.881V75.51v-.005Z"/><path fill="#10228F" d="M51.111 75.464h3.83v-5.728h6.273V66.59H54.94v-4.474h6.273v-3.218H51.11v16.567Z"/><g fill="#10228F" data-svg-origin="59.48224258935079 61.503570556640625" style="transform-origin:0 0 0;transform:matrix3d(-.833037,.553217,0,0,-.553217,-.833037,0,0,0,0,1,0,143.058,79.8317,0,1)"><path d="M2.278 55.382c.225-2.212 2.146-3.752 4.297-3.538 2.124.215 3.698 2.108 3.478 4.32a3.895 3.895 0 0 1-4.265 3.51 3.899 3.899 0 0 1-3.505-4.297l-.005.005ZM9.393 33.587l3.438 1.942 2.906-5.145 3.081 1.739-2.905 5.15 4.561 2.575-2.173 3.846L4.033 35.64l5.079-8.996 3.186 1.799-2.905 5.15v-.005ZM14.246 19.973l5.568-4.968c2.752-2.454 6.372-1.96 8.535.467 1.518 1.706 1.991 3.946 1.21 6.02l5.816 1.596-3.863 3.45-4.671-1.282-1.09.974 2.708 3.037-3.296 2.938-10.911-12.232h-.006Zm10.74-1.502c-.913-1.023-2.37-1.293-3.422-.363l-1.706 1.519 3.39 3.802 1.684-1.502c1.067-.952.968-2.432.055-3.461v.005ZM51.58 16.561l-4.573 1.728-1.232-1.601-5.282 1.997.137 2.014-4.462 1.69-.215-17.438 4.132-1.562 11.49 13.172h.005Zm-11.346-1.31 3.45-1.303-3.934-5.272.484 6.576ZM63.596 10.438l.32-10.119 4.418.138-.517 16.38-4.534-.143-5.277-10.03-.308 9.854-4.419-.137L53.796 0l4.535.143 5.265 10.295ZM88.479 18.455c-2.025 3.065-6.014 4.573-10.416 2.587-5.096-2.3-6.444-7.34-4.545-11.555 1.843-4.083 6.525-6.493 11.489-4.254 4.748 2.14 6.085 6.212 4.924 9.927l-4.215-1.904c.408-1.678-.225-3.412-2.2-4.303-2.614-1.178-4.903.192-5.894 2.382-1.073 2.372-.396 4.925 2.19 6.097 1.679.76 3.44.27 4.391-.908l4.265 1.926.01.005ZM98.432 14.059l3.329 2.949-10.862 12.27-3.329-2.95 10.862-12.27ZM104.396 36.779l8.595-5.354 2.338 3.747-13.904 8.666-2.4-3.852 5.415-9.959-8.37 5.216-2.338-3.747 13.905-8.666 2.399 3.852-5.634 10.097h-.006ZM117.052 55.437c.22 2.212-1.353 4.104-3.51 4.319-2.124.21-4.045-1.332-4.265-3.544-.214-2.184 1.359-4.077 3.483-4.286a3.906 3.906 0 0 1 4.292 3.51ZM15.313 71.271l2.658 6.972c1.315 3.444-.44 6.647-3.472 7.808-2.135.814-4.396.456-6.053-1.013l-3.56 4.864-1.843-4.842 2.861-3.912-.522-1.365L1.58 81.23.006 77.104l15.313-5.838-.006.005Zm-2.42 10.57c1.287-.49 2.057-1.755 1.557-3.065l-.815-2.135-4.76 1.816.804 2.108c.512 1.337 1.926 1.771 3.213 1.282v-.006ZM15.105 91.624c3.252-3.12 8.48-3.626 12.303.37 3.847 4.01 3.115 9.21-.137 12.33-3.252 3.12-8.48 3.626-12.326-.391-3.824-3.994-3.092-9.194.16-12.309Zm9.046 9.443c1.733-1.662 2.2-4.342.341-6.284-1.865-1.942-4.561-1.585-6.295.071-1.733 1.662-2.206 4.342-.34 6.284 1.86 1.942 4.56 1.585 6.294-.071ZM42.287 120.711l-4.462-1.986.247-2.003-5.161-2.295-1.32 1.53-4.359-1.937 12.117-12.545 4.038 1.793-1.1 17.443Zm-7.148-8.914 3.368 1.497.913-6.51-4.28 5.013ZM54.474 116.936c-.088 1.607.765 2.592 2.135 2.669 1.079.061 1.877-.539 1.931-1.502.061-1.079-.825-1.541-2.393-2.245-2.944-1.31-5.519-2.416-5.332-5.75.182-3.241 3.269-4.534 6.427-4.358 4.413.248 6.02 2.971 5.871 5.635l-4.413-.248c.077-1.376-.495-2.196-1.69-2.262-.907-.049-1.721.375-1.776 1.338-.05.935.764 1.535 2.167 2.112 2.719 1.15 5.756 2.372 5.574 5.706-.187 3.39-2.839 5.178-6.751 4.958-3.857-.215-6.394-2.498-6.185-6.295l4.44.248-.005-.006ZM70.105 108.99l-3.395.896-.974-3.675 11.066-2.922.973 3.681-3.395.897 3.214 12.166-4.27 1.128-3.213-12.166-.006-.005ZM84.859 102.635l1.706 2.729 5.007-3.136 1.739 2.779-5.013 3.136 1.645 2.63 5.013-3.136 1.799 2.878-8.754 5.474-8.689-13.893 8.755-5.475 1.8 2.878-5.014 3.136h.006ZM90.834 94.508l4.617-5.866c2.278-2.9 5.931-3.043 8.484-1.034 1.794 1.414 2.652 3.538 2.245 5.711l6.003.556-3.202 4.072-4.826-.446-.902 1.15 3.197 2.515-2.735 3.472-12.876-10.136-.005.006Zm10.311-3.357c-1.078-.847-2.564-.858-3.428.242l-1.408 1.794 4 3.148 1.392-1.772c.886-1.128.528-2.564-.55-3.417l-.006.005ZM112.16 80.824c1.53.506 2.702-.055 3.137-1.36.341-1.028-.028-1.953-.947-2.255-1.029-.342-1.7.39-2.795 1.722-2.036 2.498-3.786 4.693-6.949 3.642-3.082-1.023-3.522-4.346-2.521-7.345 1.398-4.193 4.446-5.03 6.977-4.188l-1.397 4.193c-1.304-.434-2.245-.099-2.625 1.04-.286.859-.093 1.76.826 2.064.885.297 1.683-.336 2.608-1.536 1.821-2.322 3.802-4.935 6.966-3.879 3.219 1.073 4.248 4.1 3.01 7.819-1.222 3.665-4.089 5.519-7.698 4.314l1.403-4.22.005-.011Z"/></g></svg>
