<svg xmlns="http://www.w3.org/2000/svg" viewBox="0 0 164.3 160.65"><defs><style>.cls-1{fill:#231f20;fill-rule:evenodd;}</style></defs><g id="Layer_2" data-name="Layer 2"><g id="Layer_1-2" data-name="Layer 1"><path class="cls-1" d="M74.67,47.48C68.38,45.05,60.34,40,62.25,31c2-9.27,17.47-8.74,18.63-17.17,1.26-9.15-7.53-10.26-16.3-8.13-.37.09-.61-.41-.35-.72C72.77-5.13,91,.9,88.92,16.06c-.58,4.25-4.25,8.63-6.94,11-3.72,3.21-9.45,5.17-10.23,8.77C70.52,41.46,75.76,43.7,74.67,47.48Z"/><path class="cls-1" d="M151.56,34.52c-.93-.08-1.64-.45-1.69-1.41-.1-2.15,2.43-3.48,1.23-6.15-.73-1.63-2.48-.91-3.56-1.83-4.54-3.85,2-9.55,6.41-5.42C158.1,23.59,155.44,34.89,151.56,34.52Z"/><path class="cls-1" d="M128.2,86.75c2.84-1.13,4.93-3.3,7.19-5.88.78-.87,4.53-7.77,6.5-7.82,4.55-.11,2.46,6.94.73,9.86-4.17,7.07-16,19.35-26.3,17.9-4.07-.57-6.16-3.65-6.21-9.49-3.28,5.26-28.53,21-27.4,0-4.71,2.53-9.87,10.13-18.27,9.49-6-.45-7.92-6-6.57-13.51.63-3.56,3.08-7,3.28-9.87.12-1.51-.8-3.65-.53-6.85.52-6.06,4.8-11,8.5-13.92C74,52.83,81.27,52.28,81.25,59.9c0,8.5-6.63,15.62-7.79,24.17-.18,1.28,1,2.14,1.87,1.69,4-2.09,8.89-7,10.3-10.15,2.24-5,3.08-15.83,4-22.29C91.2,42.65,94,31.58,103.17,28.84c6.87-2,12.26.82,11.32,9.14-.91,8.13-6.77,14.05-9.86,21.92-1.72,4.37-2.48,9.32-3.65,13.88S98.2,83.07,98.78,88c6-1.9,11.1-5.61,13.16-10.6,1.65-4,1.69-9.84,2.55-15,2.22-13.22,3.12-34.55,11.69-40.91C135.51,14.61,148,23.9,148.1,34c.08,10.8-9.1,20.8-14.61,27.76-1.88,2.38-4.06,5.27-6.21,7.68-1.14,8.26-1.51,11.42-1.9,15.8C125.23,86.9,127.05,87.21,128.2,86.75Zm4-54.57c-2.11,7.12-2.29,16.41-3,23,3-3.6,12-17.95,5.86-23.58C134.18,30.85,132.67,30.44,132.15,32.18Z"/><path class="cls-1" d="M39.26,52c.38-2.79,4.57-13.78,0-15.51-5.65-2.13-13.92,11.12-15.71,14.61-4.05,7.87-6.7,16.74-5.85,24.11,1,8.81,8.88,9.78,17.54,6.21,1.5-6-1.13-14.39,3.64-17.29,4.16-2.53,13.64-.36,15,2.68,1.85,4.17-2.79,8.67-3.58,15-1.08,8.55-1,12.67-2.63,19C44.86,111.55,39,121.37,25.72,122c-9.66.47-20.35-3.68-24.11-11.32-3.07-6.24-1.93-16.05,5-18-3.66-6-5.75-10.13-5-20,1.51-21.06,19.3-46.22,38-48.58,6.73-.86,12,1.13,14.25,5.11C59.78,39.52,50.5,58.08,39.26,52ZM13.54,96.7c2,5.46,9.52,15.23,17.66,12.15,4.57-1.73,4.53-10.54,3.91-16.92C30.82,95.46,23.47,98.17,13.54,96.7Z"/><path class="cls-1" d="M90,28.48c.17,4.46-7,6.54-8,11.32-.87,4.11,2.3,6.13,2.19,9.87-5.62,0-10.51-6.39-8.4-12.42C77.44,32.45,85.16,30.09,90,28.48Z"/><path class="cls-1" d="M163.81,38.34c-1.83-.57-5-.84-4.2,1.34,1.81,5.07,4.57,10.33.55,14.74-3.57,3.9-12.47,3.31-13.71-2.9-.82-4.13.29-9.17,2.54-9.43,3.11-.37,4.11,4.16,2,6.48.79,1.27,2.11,3.67,3.28,2.92,2.62-1.66-2.84-7.66-1.58-14.22C153.86,31.39,167,29.62,163.81,38.34Z"/><path class="cls-1" d="M130.2,138.81c.91,4.7-12.43,7-20.78,8.26a18.21,18.21,0,0,1,3.33-5.54C119,141.27,129.23,133.75,130.2,138.81Z"/><path class="cls-1" d="M94.4,150.13a115.78,115.78,0,0,0-22.65,5.12c-6.93,2.18-19.59,7.68-21.48,4.35-1.26-2.22,4.56-4.13,8-5.45,9.46-3.68,24.39-7.54,34.38-9.38C95.46,144.24,94.6,148.81,94.4,150.13Z"/><path class="cls-1" d="M106.52,117.89c-3.08-1.3,2.34-11.23.33-11.6-4.34-.78-2.52,9.16-2.45,13.25a19.27,19.27,0,0,1,5.73-.2c.8-4.87,4.14-12.31,9.52-12.16,8.53.24,3.74,12.06-3,13.36.09,7.06,8.23.57,9.5-2.19.89-1.92,1-4.33,1.63-6,1.09-2.87,4.22-7.23,7.34-7.85,8-1.6,7.32,7.73,3.82,11.26a10.58,10.58,0,0,1-5.85,2.93c.3,2.43,1.37,4,2.79,3.8,5.24-.73,6.05-4.21,9.41-8.34.39-.49,1-.35,1.4,0,1.95,1.58-3.81,14.37-13.24,14.52-3,.05-6-2.9-6.57-5.23-2.58,5.32-15.9,10.12-16.8,0-1.22.36-2.37.82-3.66,1.09,8.79,4.36,1.09,33-8.52,26.76-4.11-2.67-.14-17.46-.32-24.48,0-1.4-1.31,0-1.26-1.82.06-2.52.39-4,2.15-4.66-.1-3.87-.1-7.75.65-10.78-1.89.55-5.5,2.54-9.5,2.19V118c3,.2,4.36-1.25,6.58-1.83,2.92,3.87-1.16,8-6.21,7.31,1.5,10.86-2.3,23.65-12.35,21.34-2-.46-3.52-2.62-4-5.67-.89.61-2.78,2.35-5.38,1.71-.83,4.79-10.66,8.61-12.24,1.22-4.9,7.21-21.09,12.12-23.07,0-1.71-10.45,6-25.61,15.35-26.67,10.62-1.21,8.87,15.71-.37,14.25.44-2.54,2-6.4.37-8.77-5.52.21-11.61,19.56-5.12,21.92,5.39,1.95,9.23-2.87,12.06-5.12.44-4.89,2.13-10.18,6.21-11,1.15-.22,3,0,3.31,1.16a1.91,1.91,0,0,1,2.8-.24c2,1.44,2.07,5.78,1.73,9.28,3.68.29,6.48-4.72,9-8,1.69-2.24,4-4.41,4.06-5.14s-1.52-1.1-1.49-2.62c0-1.1.21-2,2.34-2.62a44.46,44.46,0,0,1,.73-7c-4.2,0-11.78-.91-12.69,2.74-.84,3.37,2.62,4.75,5.3,6.09-1.21,6.86-9,2.74-10-1.89-3.38-16.68,21.21-11.15,32.16-15.1,1,.42,1.36,1.57,1.46,2.92,1.87-2.71,4.9-5.72,8.56-4.61C116.4,104,109.38,119.1,106.52,117.89Zm26.32-2.68c2.76.23,5-5.29,2.48-5.63C133.76,109.37,132.68,113.2,132.84,115.21Zm-16.3,2.07c1.69.06,4.24-4,2.34-4.78S116.52,115.5,116.54,117.28Zm-14,28.45c3.67.2,5.09-15.16,1-17.79C103.66,134.42,102.86,140,102.57,145.73Zm-22-5.46c3.27.61,3.54-7.79,3-11.53,0-.27-.46-.58-.68-.18C81.45,131.05,76.2,139.47,80.52,140.27Zm-17.4.91c5-.61.12-7.88,1-11.81C61.23,131.38,59.77,141.6,63.12,141.18Z"/></g></g></svg>